<?xml version="1.0" encoding="utf-8"?>
<!-- Generator: Adobe Illustrator 21.1.0, SVG Export Plug-In . SVG Version: 6.00 Build 0)  -->
<svg version="1.1" id="Layer_1" xmlns="http://www.w3.org/2000/svg" xmlns:xlink="http://www.w3.org/1999/xlink" x="0px" y="0px"
	 viewBox="0 0 216 216" style="enable-background:new 0 0 216 216;" xml:space="preserve">
<path style="display:none;fill:#612A60;stroke:#FFFFFF;stroke-width:3;stroke-miterlimit:10;" d="M194.3,53.1
	c-1.3,0.3-2.9,0.7-4.5,1c-1.7,0.3-2.8,1.1-3.2,2.9c-0.3,1.3-0.8,2.5-1.4,3.7c-0.6,1.3-0.4,2.5,0.5,3.6c1,1.2,1.9,2.4,2.9,3.7
	c1,1.3,1,2.5-0.1,3.8c-1.5,1.7-3,3.3-4.5,4.9c-1.2,1.3-2.4,1.4-3.8,0.5c-1.4-0.9-2.8-1.7-4.2-2.6c-1.2-0.8-2.3-0.7-3.6,0
	c-1.2,0.7-2.5,1.2-3.8,1.8c-1.3,0.5-2,1.5-2.2,2.9c-0.2,1.5-0.3,3.1-0.5,4.6c-0.2,1.7-1.1,2.6-2.8,2.6c-2.1,0.1-4.3,0.2-6.4,0.3
	c-1.8,0.1-2.8-0.7-3.2-2.5c-0.3-1.4-0.6-2.7-0.9-4.1c-0.3-1.7-1.1-2.7-2.8-3.2c-1.1-0.3-2.2-0.7-3.2-1.2c-1.6-0.7-2.9-0.6-4.2,0.6
	c-1,0.9-2.2,1.8-3.3,2.6c-1.5,1.1-2.7,1.1-4.1-0.2c-1.6-1.4-3.1-2.8-4.7-4.2c-1.4-1.3-1.5-2.5-0.6-4c0.8-1.3,1.7-2.6,2.5-3.9
	c0.8-1.2,0.8-2.4,0-3.7c-0.6-1.1-1.2-2.3-1.7-3.6c-0.6-1.5-1.6-2.3-3.2-2.4c-1.5-0.1-2.9-0.3-4.4-0.5c-1.7-0.2-2.6-1.1-2.7-2.8
	c-0.1-2.2-0.2-4.3-0.3-6.5c-0.1-1.7,0.7-2.7,2.4-3.1c1.6-0.4,3.1-0.7,4.7-1.1c1.3-0.3,2.1-1,2.5-2.3c0.5-1.5,1-2.9,1.6-4.4
	c0.4-1.2,0.4-2.2-0.5-3.2c-1-1.2-2-2.5-3-3.8c-1.1-1.5-1.1-2.7,0.2-4.1c1.4-1.6,2.8-3.1,4.2-4.6c1.2-1.3,2.5-1.5,4-0.5
	c1.4,0.8,2.7,1.7,4,2.6c1.1,0.7,2.3,0.7,3.5,0.1c1.3-0.7,2.6-1.2,3.9-1.8c1.3-0.6,2-1.5,2.2-2.9c0.2-1.6,0.4-3.2,0.6-4.8
	c0.2-1.6,1.1-2.5,2.8-2.6c2.2-0.1,4.4-0.2,6.6-0.3c1.6-0.1,2.6,0.7,3,2.3c0.3,1.5,0.7,3,1,4.6c0.3,1.4,1.1,2.2,2.4,2.7
	c1.5,0.5,3,1,4.4,1.6c1.3,0.5,2.4,0.3,3.5-0.5c1.3-1,2.6-2,3.9-3c1.1-0.8,2.3-0.9,3.4,0c1.8,1.6,3.6,3.2,5.4,4.9
	c1,1,1.1,2.2,0.4,3.5c-0.9,1.4-1.7,2.8-2.6,4.2c-0.8,1.2-0.8,2.4-0.1,3.7c0.7,1.3,1.2,2.6,1.8,3.9c0.5,1.2,1.4,2,2.8,2.1
	c1.6,0.2,3.2,0.3,4.8,0.5c1.6,0.2,2.5,1.1,2.6,2.8c0.1,2.2,0.3,4.4,0.3,6.6C196.4,51.6,195.8,52.5,194.3,53.1z M172.6,42.3
	c-3.3-7.8-12.7-11.6-20.6-8.2c-7.9,3.4-11.7,12.7-8.3,20.7c3.4,7.9,12.7,11.6,20.6,8.3C172.3,59.6,176.1,50.3,172.6,42.3z"/>
<g>
	<path style="fill:#612A60;" d="M120.1,183.6c0-21.7,17.6-39.3,39.3-39.3c1.8,0,3.6,0.1,5.3,0.4c0.3-1.3,0.5-2.4,0.6-3.5
		c3.3-21.6-10-41.4-25.7-54.2c-9.8,15.4-25.8,25.5-44,25.5c-18.1,0-34.3-10.1-44-25.5c-15.8,12.8-29,32.6-25.8,54.2
		c2.4,15.9,17.2,57.4,21.2,68.4c0.6,1.7,2.1,2.7,3.9,2.7h81.5C124.9,205.1,120.1,194.9,120.1,183.6z M115,139.8v-9.2
		c0-1.4,1.2-2.6,2.6-2.6h25.1c1.4,0,2.6,1.2,2.6,2.6v9.2c0,1.4-1.2,2.6-2.6,2.6h-25.1C116.2,142.5,115,141.3,115,139.8z"/>
	<ellipse style="fill:#612A60;" cx="95.7" cy="52.2" rx="44.4" ry="50.7"/>
	<path style="fill:#612A60;" d="M159.6,152.4c-17.1,0-31.1,13.9-31.1,31.1s13.9,31.1,31.1,31.1s31.1-13.9,31.1-31.1
		S176.7,152.4,159.6,152.4z M156,176.6c0.3,0.7,0.9,1.3,1.7,1.8c0.8,0.6,1.9,1.1,3.4,1.7c2.8,1.1,5,2.2,6.7,3.3
		c1.7,1.1,3.1,2.4,4.1,4c1,1.6,1.5,3.6,1.5,5.9c0,2.2-0.5,4.1-1.4,5.7c-0.9,1.6-2.2,2.9-3.9,3.9c-1.7,1-3.7,1.6-5.9,1.8v5.6h-4.5
		v-5.6c-2.2-0.2-4.3-0.9-6.1-1.9c-1.8-1-3.3-2.4-4.4-4.4c-1.1-1.9-1.7-4.3-1.7-7.2h8.5c0,2.4,0.6,4.1,1.7,5.2
		c1.1,1.1,2.5,1.6,4.3,1.6c1.6,0,2.9-0.4,3.7-1.3s1.3-2,1.3-3.4c0-1-0.2-1.9-0.5-2.6c-0.4-0.7-0.9-1.3-1.7-1.9
		c-0.8-0.5-1.9-1.1-3.3-1.6c-2.8-1.1-5.1-2.2-6.8-3.2c-1.7-1.1-3.1-2.4-4.1-4c-1-1.6-1.5-3.6-1.5-5.9c0-2.1,0.5-4,1.4-5.6
		c0.9-1.6,2.3-2.9,4-3.9c1.7-1,3.7-1.6,5.9-1.8v-6h4.5v6.1c2.2,0.3,4.1,1,5.7,2.2s2.8,2.6,3.7,4.5c0.9,1.9,1.3,4,1.3,6.4H165
		c0-2.1-0.4-3.7-1.3-4.8c-0.9-1.1-2.1-1.6-3.6-1.6c-1.5,0-2.7,0.4-3.5,1.3c-0.8,0.9-1.1,2-1.1,3.4
		C155.5,175.1,155.7,175.9,156,176.6z"/>
</g>
</svg>
