<?xml version="1.0" encoding="utf-8"?>
<!-- Generator: Adobe Illustrator 21.1.0, SVG Export Plug-In . SVG Version: 6.00 Build 0)  -->
<svg version="1.1" id="Layer_1" xmlns="http://www.w3.org/2000/svg" xmlns:xlink="http://www.w3.org/1999/xlink" x="0px" y="0px"
	 viewBox="0 0 216 216" style="enable-background:new 0 0 216 216;" xml:space="preserve">
<g>
	<path style="fill:#612A60;" d="M108,180c-51.4,0-87.9-15.7-94.8-36.1c-0.6,2.1-1.1,4.1-1.1,6.1c0,2,0,21.9,0,24
		c0,23.2,39.6,42,95.9,42c56.3,0,95.9-18.8,95.9-42c0-2,0-21.9,0-24c0-2-0.5-4.1-1.1-6.1C195.9,164.3,159.4,180,108,180z"/>
	<path style="fill:#612A60;" d="M108,126.1c-51.3,0-87.7-15.6-94.7-36c-0.7,2-1.2,4-1.2,6c0,2,0,21.9,0,24c0,23.2,39.6,42,95.9,42
		c56.3,0,95.9-18.8,95.9-42c0-2,0-21.9,0-24c0-2-0.5-4-1.2-6C195.7,110.5,159.3,126.1,108,126.1z"/>
	<path style="fill:#612A60;" d="M108,0.2c-56.3,0-95.9,18.8-95.9,42c0,2,0,21.9,0,24c0,23.2,39.6,42,95.9,42
		c56.3,0,95.9-18.8,95.9-42c0-2,0-21.9,0-24C203.9,19,164.3,0.2,108,0.2z"/>
</g>
</svg>
