<?xml version="1.0" encoding="utf-8"?>
<!-- Generator: Adobe Illustrator 21.1.0, SVG Export Plug-In . SVG Version: 6.00 Build 0)  -->
<svg version="1.1" id="Layer_1" xmlns="http://www.w3.org/2000/svg" xmlns:xlink="http://www.w3.org/1999/xlink" x="0px" y="0px"
	 viewBox="0 0 216 216" style="enable-background:new 0 0 216 216;" xml:space="preserve">
<g>
	<path style="fill:#612A60;" d="M150.7,65.3c-1.5-1.5-3.1-2.8-4.8-3.8c-5.1-3.2-11-4.6-16.8-4.2c-2.9,0.2-3.9,4-1.6,5.7
		c4.6,3.4,9.3,7.3,13.7,11.8c4.4,4.4,8.4,9.1,11.8,13.7c0.4,0.6,1,1,1.6,1.2c0.3,0.1,0.6,0.1,0.9,0.2c0,0,0.1,0,0.1,0
		c1.5,0,3-1.1,3.1-2.9c0.1-1,0.1-1.9,0.1-2.9c0-1-0.1-1.9-0.2-2.9c-0.5-3.9-1.8-7.6-4-11C153.5,68.4,152.2,66.8,150.7,65.3z"/>
	<path style="fill:#612A60;" d="M108,0.3C48.5,0.3,0.3,48.5,0.3,108c0,59.5,48.2,107.7,107.7,107.7c59.5,0,107.7-48.2,107.7-107.7
		C215.7,48.5,167.5,0.3,108,0.3z M165.1,102.6c-0.6,1.1-1.2,2.2-1.9,3.3c-1.4,2.1-3,4.1-4.9,6c-1.2,1.2-2.5,2.3-3.8,3.3
		c-0.4,0.3-0.7,0.5-1.1,0.8c-1.1,0.8-2.3,1.6-3.5,2.2c-0.2,0.1-0.4,0.3-0.7,0.4c-1.4,0.8-2.9,1.4-4.3,2c-0.4,0.1-0.7,0.3-1.1,0.4
		c-1.2,0.4-2.4,0.8-3.7,1.1c-0.4,0.1-0.7,0.2-1,0.3c-1.5,0.3-3.1,0.5-4.6,0.7c-0.3,0-0.6,0-1,0c-1.3,0.1-2.6,0.1-3.9,0
		c-0.4,0-0.8,0-1.2-0.1c-1.6-0.1-3.1-0.3-4.6-0.6c-0.2,0-0.3-0.1-0.5-0.1c-1.4-0.3-2.8-0.7-4.1-1.1c-0.2-0.1-0.4-0.1-0.6-0.2
		l-9.9,9.9l-13.4-0.5l0.5,13.4l-14,0.1l0.5,13.4l-14,0.1l0.4,11.9l-21.1-0.7L46.6,146l48.5-48.5c-0.1-0.2-0.1-0.4-0.2-0.6
		c-0.5-1.4-0.8-2.7-1.1-4.1c0-0.2-0.1-0.3-0.1-0.5c-0.3-1.5-0.5-3.1-0.6-4.7c0-0.4,0-0.8-0.1-1.2c-0.1-1.3,0-2.6,0-3.9
		c0-0.3,0-0.6,0-1c0.1-1.5,0.4-3.1,0.7-4.6c0.1-0.4,0.2-0.7,0.3-1c0.3-1.2,0.7-2.5,1.1-3.7c0.1-0.4,0.2-0.7,0.4-1.1
		c0.6-1.5,1.2-2.9,2-4.3c0.1-0.2,0.3-0.4,0.4-0.7c0.7-1.2,1.4-2.4,2.2-3.5c0.3-0.4,0.5-0.7,0.8-1.1c1-1.3,2.1-2.6,3.3-3.8
		c14.9-14.9,39.1-14.9,54.1,0c7.5,7.5,11.2,17.3,11.2,27C169.4,91,168,97.1,165.1,102.6z"/>
</g>
</svg>
