<?xml version="1.0" encoding="utf-8"?>
<!-- Generator: Adobe Illustrator 21.1.0, SVG Export Plug-In . SVG Version: 6.00 Build 0)  -->
<svg version="1.1" id="Layer_1" xmlns="http://www.w3.org/2000/svg" xmlns:xlink="http://www.w3.org/1999/xlink" x="0px" y="0px"
	 viewBox="0 0 216 216" style="enable-background:new 0 0 216 216;" xml:space="preserve">
<g>
	<path style="fill:#612A60;" d="M48.1,54.1c6.6,0,12-5.4,12-12V18.2c0-6.6-5.4-12-12-12c-6.6,0-12,5.4-12,12v23.9
		C36.2,48.8,41.5,54.1,48.1,54.1z"/>
	<path style="fill:#612A60;" d="M167.9,54.1c6.6,0,12-5.4,12-12V18.2c0-6.6-5.4-12-12-12c-6.6,0-12,5.4-12,12v23.9
		C155.9,48.8,161.2,54.1,167.9,54.1z"/>
	<path style="fill:#612A60;" d="M203.8,18.2h-12v23.9c0,13.2-10.7,23.9-23.9,23.9c-13.2,0-23.9-10.7-23.9-23.9V18.2H72.1v23.9
		c0,13.2-10.7,23.9-23.9,23.9c-13.2,0-23.9-10.7-23.9-23.9V18.2h-12c-6.6,0-12,5.4-12,12v167.6c0,6.6,5.4,12,12,12h191.6
		c6.6,0,12-5.4,12-12V30.2C215.8,23.6,210.4,18.2,203.8,18.2z M203.8,185.8c0,6.6-5.4,12-12,12H24.2c-6.6,0-12-5.4-12-12V90
		c0-6.6,5.4-12,12-12h167.6c6.6,0,12,5.4,12,12V185.8z"/>
	<path style="fill:#612A60;" d="M84.1,102h-18c-6.6,0-12,5.4-12,12c0,6.6,5.4,12,12,12h6v41.9c0,6.6,5.4,12,12,12
		c6.6,0,12-5.4,12-12V114C96,107.4,90.7,102,84.1,102z"/>
	<path style="fill:#612A60;" d="M137.9,102h-18c-6.6,0-12,5.4-12,12c0,6.6,5.4,12,12,12h6v41.9c0,6.6,5.4,12,12,12
		c6.6,0,12-5.4,12-12V114C149.9,107.4,144.5,102,137.9,102z"/>
</g>
</svg>
