<?xml version="1.0" encoding="utf-8"?>
<!-- Generator: Adobe Illustrator 21.1.0, SVG Export Plug-In . SVG Version: 6.00 Build 0)  -->
<svg version="1.1" id="Layer_1" xmlns="http://www.w3.org/2000/svg" xmlns:xlink="http://www.w3.org/1999/xlink" x="0px" y="0px"
	 viewBox="0 0 216 216" style="enable-background:new 0 0 216 216;" xml:space="preserve">
<g>
	<path style="fill:#612A60;" d="M73.2,124.8c0,4.2,3.5,7.7,7.7,7.7h91.3c4.2,0,7.7-3.5,7.7-7.7c0-4.2-3.4-7.7-7.7-7.7H80.9
		C76.6,117.1,73.2,120.5,73.2,124.8z M172.7,124.8c0,0.3-0.3,0.6-0.6,0.6H80.9c-0.3,0-0.6-0.3-0.6-0.6c0-0.3,0.3-0.6,0.6-0.6h91.3
		C172.5,124.2,172.7,124.5,172.7,124.8z"/>
	<path style="fill:#612A60;" d="M172.1,166.9H80.9c-4.2,0-7.7,3.5-7.7,7.7c0,4.2,3.5,7.7,7.7,7.7h91.3c4.2,0,7.7-3.5,7.7-7.7
		C179.8,170.3,176.4,166.9,172.1,166.9z M172.1,175.2H80.9c-0.3,0-0.6-0.3-0.6-0.6c0-0.3,0.3-0.6,0.6-0.6h91.3
		c0.3,0,0.6,0.3,0.6,0.6C172.7,174.9,172.5,175.2,172.1,175.2z"/>
	<path style="fill:#612A60;" d="M204.6,96.3l-70.4-70.4v-0.1H110c1.7-5.7,0.9-11.2-3.9-16.3C81.9-16,24.2,21.2,24.2,21.2
		s-4-4.1-7.5-5.6c-3.5-1.5-7.5,23-4.4,25.9c3.1,3,18.8,2.5,26.4,0.5c7.6-2,0-6,0-6l-6.9-4.8c10.2-7.9,60.9-27.5,65.2-5.4H68.4
		c-11.1,0-20.1,9-20.1,20.1v1.7C29,60.8,8.2,80.3,22.5,95.5c6.7,7,15.9,9.2,25.7,8.8v91.1c0,11.1,9,20.1,20.1,20.1h116.2
		c11.1,0,20.1-9,20.1-20.1v-99H204.6z M141.2,42.9l46.4,46.4l-36.6,0c-5.4,0-9.8-4.4-9.8-9.8V42.9z M31.1,75.6
		c0.2-7.5,8.2-17.9,17.1-26.2v40C38.3,89.3,30.9,85.8,31.1,75.6z M197.6,195.3c0,7.2-5.9,13.1-13.1,13.1H68.4
		c-7.2,0-13.1-5.9-13.1-13.1v-91.8c24-3.7,49.1-19.8,49.1-19.8s4,4.1,7.5,5.6c3.5,1.5,7.5-22.9,4.4-25.9c-3.1-3-18.8-2.5-26.4-0.5
		c-7.6,2,0,6,0,6l6.9,4.8c-5.9,4.6-25.2,13-41.4,15.1V46c0-7.2,5.9-13.1,13.1-13.1h58.7v46.2c0,13.4,10.9,24.3,24.3,24.3h46.3V195.3
		z"/>
	<path style="fill:#612A60;" d="M172.1,142H80.9c-4.2,0-7.7,3.5-7.7,7.7s3.5,7.7,7.7,7.7h91.3c4.2,0,7.7-3.5,7.7-7.7
		S176.4,142,172.1,142z M172.1,150.3H80.9c-0.3,0-0.6-0.3-0.6-0.6s0.3-0.6,0.6-0.6h91.3c0.3,0,0.6,0.3,0.6,0.6
		S172.5,150.3,172.1,150.3z"/>
</g>
</svg>
