<?xml version="1.0" encoding="utf-8"?>
<!-- Generator: Adobe Illustrator 21.1.0, SVG Export Plug-In . SVG Version: 6.00 Build 0)  -->
<svg version="1.1" id="Layer_1" xmlns="http://www.w3.org/2000/svg" xmlns:xlink="http://www.w3.org/1999/xlink" x="0px" y="0px"
	 viewBox="0 0 216 216" style="enable-background:new 0 0 216 216;" xml:space="preserve">
<g>
	<g>
		<path style="fill:#612A60;" d="M118.4,41.2c-5.4,8.6-13.5,13.1-21.9,7.6c-8.4-5.5-7.8-14.9-2.5-23.4c5.4-8.6,13.5-13.1,21.9-7.6
			C124.3,23.2,123.7,32.6,118.4,41.2z"/>
	</g>
	<g>
		<path style="fill:#612A60;" d="M29.2,144.3c0,0,0,7.6,0,17.9S23.6,180,23.6,180L3.1,205.6c-2.7,2.9-3.9,6.2-1,8.9
			c2.9,2.7,6.1,1.3,8.8-1.6l26.5-26.7c0,0,6-6.3,7-16.2l0.8-11.4"/>
	</g>
	<path style="fill:#612A60;" d="M115.2,216h100.3c0-18.1-13.5-33.1-30.9-35.5c-4-8.7-12.7-14.7-22.8-14.7c-1,0-1.9,0.1-2.8,0.2l0,0
		l-19.3-13.2c-3.3-2.2-7.7-1.4-10,1.9l-1,1.5l-27.8-18.9c0-8.8,0-47.8,0-57.4c0-10.7-14.3-21.5-14.3-21.5S76.3,51.2,65,51.2
		s-31.1,0-31.1,0s-7.3,0.2-11.5,7.2L8.4,82.4l0,0c-0.5,0.8-0.8,1.8-0.8,2.8c0,3,2.4,5.4,5.4,5.4c1.9,0,3.5-0.9,4.5-2.4l-0.1,0.1
		l1.5-2.1l-2,3l17.7,11.9c-10.1,14.4-5.2,25.3,7.4,37.8l25.9,25.7c0,0,3.6,3.3,4.2,8.4l3.6,35.8c0,4,1.4,7.2,5.4,7.2
		s5.4-3.2,5.4-7.2V173c0-2.6,0-5.6-2-8.6l-20.7-30.8c-3.1-5.3-3.6-8.8-1.2-13.7l27.5,18.7l0,0.4c0.3,3.2,2.4,5.4,5.4,5.4
		c0.8,0,1.6-0.2,2.3-0.5l26.8,18.2l-1,1.5c-2.2,3.3-1.4,7.7,1.9,10l12.7,8.7l0,0c-0.7,1.9-1.2,3.9-1.4,6.1
		C124.4,191.3,115.2,202.6,115.2,216z M36.7,98.3l2-3L21.1,83.3l8.2-11.2c0,0,5-6.7,12.6-6.7h19.5C61.4,65.5,48.5,82.7,36.7,98.3z
		 M65.1,115.7c0.1-0.2,0.2-0.3,0.4-0.5l-0.6,0.9C64.9,116,65,115.8,65.1,115.7z M66.4,113.8C72.2,105.7,86.5,87,86.5,87l2.9,42.4
		L66.4,113.8z"/>
</g>
</svg>
