<?xml version="1.0" encoding="utf-8"?>
<!-- Generator: Adobe Illustrator 21.1.0, SVG Export Plug-In . SVG Version: 6.00 Build 0)  -->
<svg version="1.1" id="Layer_1" xmlns="http://www.w3.org/2000/svg" xmlns:xlink="http://www.w3.org/1999/xlink" x="0px" y="0px"
	 viewBox="0 0 216 216" style="enable-background:new 0 0 216 216;" xml:space="preserve">
<style type="text/css">
	.st0{fill:#612A60;}
	.st1{fill:#FFFFFF;}
</style>
<g>
	<ellipse class="st0" cx="-213.9" cy="81.9" rx="37.2" ry="42.5"/>
	<path class="st0" d="M-177,111c-8.2,12.9-21.6,21.4-36.9,21.4c-15.2,0-28.7-8.5-36.9-21.4c-13.2,10.7-24.3,27.3-21.6,45.4
		c2,13.3,14.4,48.1,17.8,57.3c0.5,1.4,1.8,2.3,3.3,2.3h74.6c1.5,0,2.8-0.9,3.3-2.3c3.4-9.2,15.9-44,17.9-57.3
		C-152.7,138.3-163.9,121.7-177,111z M-172.3,155.3c0,1.2-1,2.2-2.2,2.2h-21c-1.2,0-2.2-1-2.2-2.2v-7.7c0-1.2,1-2.2,2.2-2.2h21
		c1.2,0,2.2,1,2.2,2.2V155.3z"/>
</g>
<g>
	<g>
		<g>
			<path class="st1" d="M63.6,164.6l-6.1-4.3c-5.4-3.8,13.1-30.3,18.6-26.5l6.1,4.3c8.1,5.7,15.2,4.5,20.7-3.5L128,99
				c5.6-8,4.3-15-3.9-20.7L118,74c-5.4-3.8,14.8-32.8,20.3-29l6.1,4.3c19,13.3,18.9,35.8,5.9,54.5l-33.4,47.7
				C103.8,170.1,82.6,177.9,63.6,164.6z"/>
		</g>
	</g>
	<g>
		<path class="st1" d="M108,211.9C50.7,211.9,4.1,165.3,4.1,108S50.7,4.1,108,4.1S211.9,50.7,211.9,108S165.3,211.9,108,211.9z
			 M108,12.6c-52.6,0-95.4,42.8-95.4,95.4c0,52.6,42.8,95.4,95.4,95.4c52.6,0,95.4-42.8,95.4-95.4C203.4,55.4,160.6,12.6,108,12.6z"
			/>
	</g>
</g>
</svg>
