<?xml version="1.0" encoding="utf-8"?>
<!-- Generator: Adobe Illustrator 21.1.0, SVG Export Plug-In . SVG Version: 6.00 Build 0)  -->
<svg version="1.1" id="Layer_1" xmlns="http://www.w3.org/2000/svg" xmlns:xlink="http://www.w3.org/1999/xlink" x="0px" y="0px"
	 viewBox="0 0 216 216" style="enable-background:new 0 0 216 216;" xml:space="preserve">
<g>
	<g>
		<g>
			<path style="fill:#612A60;" d="M49.7,156.4c2,13.3,14.4,48.1,17.8,57.3c0.5,1.4,1.8,2.3,3.3,2.3h74.6c1.5,0,2.8-0.9,3.3-2.3
				c3.4-9.2,15.9-44,17.9-57.3c2.8-18.1-8.4-34.6-21.6-45.4c-8.2,12.9-21.6,21.4-36.9,21.4c-15.2,0-28.7-8.5-36.9-21.4
				C58.1,121.7,46.9,138.3,49.7,156.4z"/>
		</g>
		<ellipse style="fill:#612A60;" cx="108.1" cy="81.9" rx="37.2" ry="42.5"/>
	</g>
	<polygon style="fill:#FFFFFF;" points="107.2,139 96.8,191.7 106.4,203.6 116,191.5 	"/>
	<g>
		<path style="fill:#612A60;" d="M152.8,0.5c-17.6,0-32.1,12.9-35.9,31.6c21.3,4,37.5,24.1,37.5,48.5c0,1.6-0.1,3.3-0.2,4.9
			C174.1,84.7,190,66,190,43C190,19.5,173.4,0.5,152.8,0.5z"/>
		<path style="fill:#612A60;" d="M189.7,72.1c-8.2,12.9-21.6,21.4-36.9,21.4c0,0,0,0,0,0c-0.8,3.3-2,6.5-3.4,9.5
			c1.2,0.9,2.5,1.9,3.8,3c13.2,10.7,24.4,27.3,21.6,45.4c-0.9,5.8-3.8,15.6-7,25.7H190c1.5,0,2.8-0.9,3.3-2.3
			c3.4-9.2,15.9-44,17.9-57.3C214,99.4,202.8,82.8,189.7,72.1z"/>
	</g>
	<g>
		<path style="fill:#612A60;" d="M63.2,0.5c17.6,0,32.1,12.9,35.9,31.6c-21.3,4-37.5,24.1-37.5,48.5c0,1.6,0.1,3.3,0.2,4.9
			C41.9,84.7,26,66,26,43C26,19.5,42.6,0.5,63.2,0.5z"/>
		<path style="fill:#612A60;" d="M26.3,72.1c8.2,12.9,21.6,21.4,36.9,21.4c0,0,0,0,0,0c0.8,3.3,2,6.5,3.4,9.5
			c-1.2,0.9-2.5,1.9-3.8,3c-13.2,10.7-24.4,27.3-21.6,45.4c0.9,5.8,3.8,15.6,7,25.7H26c-1.5,0-2.8-0.9-3.3-2.3
			c-3.4-9.2-15.9-44-17.9-57.3C2,99.4,13.2,82.8,26.3,72.1z"/>
	</g>
</g>
</svg>
