<?xml version="1.0" encoding="utf-8"?>
<!-- Generator: Adobe Illustrator 21.1.0, SVG Export Plug-In . SVG Version: 6.00 Build 0)  -->
<svg version="1.1" id="Layer_1" xmlns="http://www.w3.org/2000/svg" xmlns:xlink="http://www.w3.org/1999/xlink" x="0px" y="0px"
	 viewBox="0 0 216 216" enable-background="new 0 0 216 216" xml:space="preserve">
<g>
	<path fill="#612A60" d="M108,0.5C48.6,0.5,0.5,48.6,0.5,108S48.6,215.5,108,215.5S215.5,167.4,215.5,108S167.4,0.5,108,0.5z
		 M108,196c-48.6,0-88-39.4-88-88s39.4-88,88-88s88,39.4,88,88S156.6,196,108,196z"/>
	<path fill="#612A60" d="M56.2,56.2l41.5,62.2l62.2,41.5l-41.5-62.2L56.2,56.2z M113.2,113.2c-2.9,2.9-7.5,2.9-10.4,0
		c-2.9-2.9-2.9-7.5,0-10.4c2.9-2.9,7.5-2.9,10.4,0C116,105.7,116,110.3,113.2,113.2z"/>
	<path fill="#612A60" d="M105.1,59.1h5.9c1.1,0,2-0.9,2-2V31.8c0-1.1-0.9-2-2-2h-5.9c-1.1,0-2,0.9-2,2v25.4
		C103.1,58.3,104,59.1,105.1,59.1z"/>
	<path fill="#612A60" d="M110.9,156.9h-5.9c-1.1,0-2,0.9-2,2v25.4c0,1.1,0.9,2,2,2h5.9c1.1,0,2-0.9,2-2v-25.4
		C112.9,157.7,112,156.9,110.9,156.9z"/>
	<path fill="#612A60" d="M184.2,103.1h-25.4c-1.1,0-2,0.9-2,2v5.9c0,1.1,0.9,2,2,2h25.4c1.1,0,2-0.9,2-2v-5.9
		C186.2,104,185.3,103.1,184.2,103.1z"/>
	<path fill="#612A60" d="M57.2,103.1H31.8c-1.1,0-2,0.9-2,2v5.9c0,1.1,0.9,2,2,2h25.4c1.1,0,2-0.9,2-2v-5.9
		C59.1,104,58.3,103.1,57.2,103.1z"/>
</g>
</svg>
