<?xml version="1.0" encoding="utf-8"?>
<!-- Generator: Adobe Illustrator 21.1.0, SVG Export Plug-In . SVG Version: 6.00 Build 0)  -->
<svg version="1.1" id="Layer_1" xmlns="http://www.w3.org/2000/svg" xmlns:xlink="http://www.w3.org/1999/xlink" x="0px" y="0px"
	 viewBox="0 0 216 216" style="enable-background:new 0 0 216 216;" xml:space="preserve">
<g id="square_x5F_woodwork_1_">
	<g>
		<path style="fill:#612A60;" d="M207.8,216H8.2c-2.2,0-4-1.8-4-4v-63.9c0-2.2,1.8-4,4-4h199.7c2.2,0,4,1.8,4,4V212
			C211.8,214.2,210.1,216,207.8,216z M12.1,208h191.7v-55.9H12.1V208z"/>
	</g>
	<g>
		<path style="fill:#612A60;" d="M72.1,152.1c-2.2,0-4-1.8-4-4V8.3H12.1v139.8c0,2.2-1.8,4-4,4s-4-1.8-4-4V4.3c0-2.2,1.8-4,4-4h63.9
			c2.2,0,4,1.8,4,4v143.8C76,150.3,74.3,152.1,72.1,152.1z"/>
	</g>
	<g>
		<path style="fill:#612A60;" d="M175.9,192c-6.6,0-12-5.4-12-12s5.4-12,12-12s12,5.4,12,12S182.5,192,175.9,192z M175.9,176.1
			c-2.2,0-4,1.8-4,4s1.8,4,4,4s4-1.8,4-4S178.1,176.1,175.9,176.1z"/>
	</g>
	<g>
		<path style="fill:#612A60;" d="M28.1,32.3h-16c-2.2,0-4-1.8-4-4s1.8-4,4-4h16c2.2,0,4,1.8,4,4S30.3,32.3,28.1,32.3z"/>
	</g>
	<g>
		<path style="fill:#612A60;" d="M28.1,128.1h-16c-2.2,0-4-1.8-4-4s1.8-4,4-4h16c2.2,0,4,1.8,4,4S30.3,128.1,28.1,128.1z"/>
	</g>
	<g>
		<path style="fill:#612A60;" d="M40.1,56.2h-28c-2.2,0-4-1.8-4-4c0-2.2,1.8-4,4-4h28c2.2,0,4,1.8,4,4
			C44.1,54.5,42.3,56.2,40.1,56.2z"/>
	</g>
	<g>
		<path style="fill:#612A60;" d="M28.1,80.2h-16c-2.2,0-4-1.8-4-4s1.8-4,4-4h16c2.2,0,4,1.8,4,4S30.3,80.2,28.1,80.2z"/>
	</g>
	<g>
		<path style="fill:#612A60;" d="M40.1,104.2h-28c-2.2,0-4-1.8-4-4c0-2.2,1.8-4,4-4h28c2.2,0,4,1.8,4,4
			C44.1,102.4,42.3,104.2,40.1,104.2z"/>
	</g>
</g>
</svg>
