<?xml version="1.0" encoding="utf-8"?>
<!-- Generator: Adobe Illustrator 21.1.0, SVG Export Plug-In . SVG Version: 6.00 Build 0)  -->
<svg version="1.1" id="Layer_1" xmlns="http://www.w3.org/2000/svg" xmlns:xlink="http://www.w3.org/1999/xlink" x="0px" y="0px"
	 viewBox="0 0 216 216" style="enable-background:new 0 0 216 216;" xml:space="preserve">
<g id="square_x5F_woodwork_1_">
	<g>
		<path style="fill:#612A60;" d="M-82.8,195.8h-199.7c-2.2,0-4-1.8-4-4v-63.9c0-2.2,1.8-4,4-4h199.7c2.2,0,4,1.8,4,4v63.9
			C-78.8,194-80.6,195.8-82.8,195.8z M-278.5,187.8h191.7v-55.9h-191.7V187.8z"/>
	</g>
	<g>
		<path style="fill:#612A60;" d="M-218.6,131.9c-2.2,0-4-1.8-4-4V-11.8h-55.9v139.8c0,2.2-1.8,4-4,4c-2.2,0-4-1.8-4-4V-15.8
			c0-2.2,1.8-4,4-4h63.9c2.2,0,4,1.8,4,4v143.8C-214.6,130.1-216.4,131.9-218.6,131.9z"/>
	</g>
	<g>
		<path style="fill:#612A60;" d="M-114.8,171.9c-6.6,0-12-5.4-12-12s5.4-12,12-12c6.6,0,12,5.4,12,12S-108.2,171.9-114.8,171.9z
			 M-114.8,155.9c-2.2,0-4,1.8-4,4s1.8,4,4,4c2.2,0,4-1.8,4-4S-112.6,155.9-114.8,155.9z"/>
	</g>
	<g>
		<path style="fill:#612A60;" d="M-262.5,12.1h-16c-2.2,0-4-1.8-4-4s1.8-4,4-4h16c2.2,0,4,1.8,4,4S-260.3,12.1-262.5,12.1z"/>
	</g>
	<g>
		<path style="fill:#612A60;" d="M-262.5,108h-16c-2.2,0-4-1.8-4-4c0-2.2,1.8-4,4-4h16c2.2,0,4,1.8,4,4
			C-258.5,106.2-260.3,108-262.5,108z"/>
	</g>
	<g>
		<path style="fill:#612A60;" d="M-250.6,36.1h-28c-2.2,0-4-1.8-4-4c0-2.2,1.8-4,4-4h28c2.2,0,4,1.8,4,4
			C-246.6,34.3-248.4,36.1-250.6,36.1z"/>
	</g>
	<g>
		<path style="fill:#612A60;" d="M-262.5,60h-16c-2.2,0-4-1.8-4-4c0-2.2,1.8-4,4-4h16c2.2,0,4,1.8,4,4
			C-258.5,58.3-260.3,60-262.5,60z"/>
	</g>
	<g>
		<path style="fill:#612A60;" d="M-250.6,84h-28c-2.2,0-4-1.8-4-4s1.8-4,4-4h28c2.2,0,4,1.8,4,4S-248.4,84-250.6,84z"/>
	</g>
</g>
<g id="set_x5F_square_1_">
	<g>
		<path style="fill:#612A60;" d="M208.5,213.5H7.5c-2,0-3.8-1.2-4.6-3.1c-0.8-1.9-0.3-4,1.1-5.4L205,4c1.4-1.4,3.5-1.8,5.4-1.1
			c1.9,0.8,3.1,2.6,3.1,4.6v201.1C213.5,211.3,211.3,213.5,208.5,213.5z M19.4,203.6h184.2V19.4L19.4,203.6z"/>
	</g>
	<g>
		<path style="fill:#612A60;" d="M163.9,168.8h-52.1c-2,0-3.8-1.2-4.6-3.1c-0.8-1.9-0.3-4,1.1-5.4l52.1-52.1
			c1.4-1.4,3.5-1.8,5.4-1.1c1.9,0.8,3.1,2.6,3.1,4.6v52.1C168.8,166.6,166.6,168.8,163.9,168.8z M123.7,158.9h35.2v-35.2
			L123.7,158.9z"/>
	</g>
	<g>
		<path style="fill:#612A60;" d="M208.5,49.6h-14.9c-2.7,0-5-2.2-5-5c0-2.7,2.2-5,5-5h14.9c2.7,0,5,2.2,5,5
			C213.5,47.4,211.3,49.6,208.5,49.6z"/>
	</g>
	<g>
		<path style="fill:#612A60;" d="M208.5,72h-26.1c-2.7,0-5-2.2-5-5c0-2.7,2.2-5,5-5h26.1c2.7,0,5,2.2,5,5
			C213.5,69.8,211.3,72,208.5,72z"/>
	</g>
	<g>
		<path style="fill:#612A60;" d="M208.5,94.3h-14.9c-2.7,0-5-2.2-5-5s2.2-5,5-5h14.9c2.7,0,5,2.2,5,5S211.3,94.3,208.5,94.3z"/>
	</g>
	<g>
		<path style="fill:#612A60;" d="M208.5,116.7h-26.1c-2.7,0-5-2.2-5-5c0-2.7,2.2-5,5-5h26.1c2.7,0,5,2.2,5,5
			C213.5,114.5,211.3,116.7,208.5,116.7z"/>
	</g>
	<g>
		<path style="fill:#612A60;" d="M208.5,139h-14.9c-2.7,0-5-2.2-5-5c0-2.7,2.2-5,5-5h14.9c2.7,0,5,2.2,5,5
			C213.5,136.8,211.3,139,208.5,139z"/>
	</g>
	<g>
		<path style="fill:#612A60;" d="M208.5,161.4h-26.1c-2.7,0-5-2.2-5-5c0-2.7,2.2-5,5-5h26.1c2.7,0,5,2.2,5,5
			C213.5,159.1,211.3,161.4,208.5,161.4z"/>
	</g>
	<g>
		<path style="fill:#612A60;" d="M208.5,183.7h-14.9c-2.7,0-5-2.2-5-5c0-2.7,2.2-5,5-5h14.9c2.7,0,5,2.2,5,5
			C213.5,181.5,211.3,183.7,208.5,183.7z"/>
	</g>
</g>
</svg>
