<?xml version="1.0" encoding="utf-8"?>
<!-- Generator: Adobe Illustrator 21.1.0, SVG Export Plug-In . SVG Version: 6.00 Build 0)  -->
<svg version="1.1" id="Layer_1" xmlns="http://www.w3.org/2000/svg" xmlns:xlink="http://www.w3.org/1999/xlink" x="0px" y="0px"
	 viewBox="0 0 216 216" style="enable-background:new 0 0 216 216;" xml:space="preserve">
<g>
	<g>
		<path style="fill:#FFFFFF;" d="M209.2,215.8H6.8V0.2h202.5V215.8z M13.7,208.8h188.6V7.2H13.7V208.8z"/>
	</g>
	<path style="fill:#FFFFFF;" d="M108,36c-39.8,0-72,32.2-72,72c0,39.8,32.2,72,72,72c39.8,0,72-32.2,72-72C180,68.2,147.8,36,108,36
		z M148.4,144.6h-19v-14l1.8-37.7l-17.1,51.7h-12.4L84.6,92.9l1.9,37.7v14h-19V70.4h16h9l15.4,49.2l15.4-49.2h25.1V144.6z"/>
</g>
</svg>
