<?xml version="1.0" encoding="utf-8"?>
<!-- Generator: Adobe Illustrator 21.1.0, SVG Export Plug-In . SVG Version: 6.00 Build 0)  -->
<svg version="1.1" id="Layer_1" xmlns="http://www.w3.org/2000/svg" xmlns:xlink="http://www.w3.org/1999/xlink" x="0px" y="0px"
	 viewBox="0 0 216 216" enable-background="new 0 0 216 216" xml:space="preserve">
<ellipse fill="#FFFFFF" cx="108.1" cy="81.9" rx="37.2" ry="42.5"/>
<path fill="#FFFFFF" d="M145,111c-8.2,12.9-21.6,21.4-36.9,21.4c-15.2,0-28.7-8.5-36.9-21.4c-13.2,10.7-24.3,27.3-21.6,45.4
	c2,13.3,14.4,48.1,17.8,57.3c0.5,1.4,1.8,2.3,3.3,2.3h74.6c1.5,0,2.8-0.9,3.3-2.3c3.4-9.2,15.9-44,17.9-57.3
	C169.3,138.3,158.1,121.7,145,111z M106.4,203.6l-9.6-11.9l10.4-52.7l8.8,52.5L106.4,203.6z"/>
</svg>
