<?xml version="1.0" encoding="utf-8"?>
<!-- Generator: Adobe Illustrator 21.1.0, SVG Export Plug-In . SVG Version: 6.00 Build 0)  -->
<svg version="1.1" id="Layer_1" xmlns="http://www.w3.org/2000/svg" xmlns:xlink="http://www.w3.org/1999/xlink" x="0px" y="0px"
	 viewBox="0 0 216 216" style="enable-background:new 0 0 216 216;" xml:space="preserve">
<g id="XMLID_2_">
	<g>
		<path style="fill:#612A60;" d="M215.9,153.3v0.7c0,5.1-4.1,9.2-9.2,9.2h-2.5c-1.6-9.8-10-17.2-20.2-17.2v-1.8h22.7
			C211.8,144.1,215.9,148.2,215.9,153.3z"/>
		<path style="fill:#612A60;" d="M211.2,41.4V129c0,5.1-4.1,9.2-9.2,9.2H73.4c-5.1,0-9.2-4.1-9.2-9.2V41.4c0-5.1,4.1-9.2,9.2-9.2
			h128.7C207.1,32.2,211.2,36.4,211.2,41.4z"/>
		<path style="fill:#612A60;" d="M201,163.1c0.2,1.1,0.3,2.2,0.3,3.3c0,9.6-7.8,17.4-17.4,17.4c-9.6,0-17.4-7.8-17.4-17.4
			c0-1.1,0.1-2.2,0.3-3.3h9.1c-0.5,1.1-0.8,2.3-0.8,3.6c0,4.8,3.9,8.7,8.7,8.7c4.8,0,8.7-3.9,8.7-8.7c0-1.3-0.3-2.5-0.8-3.6H201z"/>
		<path style="fill:#612A60;" d="M201,163.1h-9.1c-1.4-3-4.4-5.1-7.9-5.1c-3.5,0-6.5,2.1-7.9,5.1h-9.1c1.5-8,8.6-14.1,17-14.1
			C192.4,149,199.5,155.1,201,163.1z"/>
		<path style="fill:#612A60;" d="M184,144.1v1.8c-10.2,0-18.7,7.5-20.2,17.2H57.4c-1.6-9.8-10-17.2-20.2-17.2v-1.8H184z"/>
		<path style="fill:#612A60;" d="M54.3,163.1h-9.1c-1.4-3-4.4-5.1-7.9-5.1c-3.5,0-6.5,2.1-7.9,5.1h-9.2c1.5-8,8.6-14.1,17.1-14.1
			C45.7,149,52.7,155.1,54.3,163.1z"/>
		<path style="fill:#612A60;" d="M37.2,183.8c-9.6,0-17.4-7.8-17.4-17.4c0-1.1,0.1-2.2,0.3-3.3h9.2c-0.5,1.1-0.8,2.3-0.8,3.6
			c0,4.8,3.9,8.7,8.7,8.7c4.8,0,8.7-3.9,8.7-8.7c0-1.3-0.3-2.5-0.8-3.6h9.1c0.2,1.1,0.3,2.2,0.3,3.3C54.6,176,46.8,183.8,37.2,183.8
			z"/>
		<path style="fill:#612A60;" d="M9.2,144.1h28v1.8c-10.2,0-18.7,7.5-20.2,17.2H9.2c-5.1,0-9.2-4.1-9.2-9.2v-0.7
			C0,148.2,4.1,144.1,9.2,144.1z"/>
		<path style="fill:#612A60;" d="M7.1,138.1c0,0-12-61.2,50.5-61.2v61.2C54.6,137.2,7.1,138.1,7.1,138.1z M53,126.7
			c0-1.4-1.1-2.5-2.5-2.5H37.4c-0.7,0-1.3,0.3-1.7,0.7c-0.5,0.5-0.7,1.1-0.7,1.8c0,1.4,1.1,2.5,2.5,2.5h13.2
			C51.9,129.2,53,128.1,53,126.7z M48.9,107.6V86c-29.5,6.5-27.9,31.4-27.9,31.4s8.9,0,17.8,0C47.6,117.3,48.9,107.6,48.9,107.6z"/>
	</g>
</g>
</svg>
