<?xml version="1.0" encoding="utf-8"?>
<!-- Generator: Adobe Illustrator 21.1.0, SVG Export Plug-In . SVG Version: 6.00 Build 0)  -->
<svg version="1.1" id="Layer_1" xmlns="http://www.w3.org/2000/svg" xmlns:xlink="http://www.w3.org/1999/xlink" x="0px" y="0px"
	 viewBox="0 0 216 216" style="enable-background:new 0 0 216 216;" xml:space="preserve">
<g>
	<g>
		<path style="fill:#FFFFFF;" d="M152.8,0.5c-17.6,0-32.1,12.9-35.9,31.6c21.3,4,37.5,24.1,37.5,48.5c0,1.6-0.1,3.3-0.2,4.9
			C174.1,84.7,190,66,190,43C190,19.5,173.4,0.5,152.8,0.5z"/>
		<path style="fill:#FFFFFF;" d="M189.7,72.1c-8.2,12.9-21.6,21.4-36.9,21.4l0,0c-0.8,3.3-2,6.5-3.4,9.5c1.2,0.9,2.5,1.9,3.8,3
			c13.2,10.7,24.4,27.3,21.6,45.4c-0.9,5.8-3.8,15.6-7,25.7H190c1.5,0,2.8-0.9,3.3-2.3c3.4-9.2,15.9-44,17.9-57.3
			C214,99.4,202.8,82.8,189.7,72.1z"/>
	</g>
	<g>
		<path style="fill:#FFFFFF;" d="M63.2,0.5c17.6,0,32.1,12.9,35.9,31.6c-21.3,4-37.5,24.1-37.5,48.5c0,1.6,0.1,3.3,0.2,4.9
			C41.9,84.7,26,66,26,43C26,19.5,42.6,0.5,63.2,0.5z"/>
		<path style="fill:#FFFFFF;" d="M26.3,72.1C34.5,85,47.9,93.5,63.2,93.5l0,0c0.8,3.3,2,6.5,3.4,9.5c-1.2,0.9-2.5,1.9-3.8,3
			c-13.2,10.7-24.4,27.3-21.6,45.4c0.9,5.8,3.8,15.6,7,25.7H26c-1.5,0-2.8-0.9-3.3-2.3c-3.4-9.2-15.9-44-17.9-57.3
			C2,99.4,13.2,82.8,26.3,72.1z"/>
	</g>
</g>
<ellipse style="fill:#FFFFFF;" cx="108.1" cy="81.9" rx="37.2" ry="42.5"/>
<path style="fill:#FFFFFF;" d="M145,111c-8.2,12.9-21.6,21.4-36.9,21.4c-15.2,0-28.7-8.5-36.9-21.4c-13.2,10.7-24.3,27.3-21.6,45.4
	c2,13.3,14.4,48.1,17.8,57.3c0.5,1.4,1.8,2.3,3.3,2.3h74.6c1.5,0,2.8-0.9,3.3-2.3c3.4-9.2,15.9-44,17.9-57.3
	C169.3,138.3,158.1,121.7,145,111z M149.7,155.3c0,1.2-1,2.2-2.2,2.2h-21c-1.2,0-2.2-1-2.2-2.2v-7.7c0-1.2,1-2.2,2.2-2.2h21
	c1.2,0,2.2,1,2.2,2.2V155.3z"/>
</svg>
