<?xml version="1.0" encoding="utf-8"?>
<!-- Generator: Adobe Illustrator 21.1.0, SVG Export Plug-In . SVG Version: 6.00 Build 0)  -->
<svg version="1.1" id="Layer_1" xmlns="http://www.w3.org/2000/svg" xmlns:xlink="http://www.w3.org/1999/xlink" x="0px" y="0px"
	 viewBox="0 0 216 216" style="enable-background:new 0 0 216 216;" xml:space="preserve">
<g>
	<path style="fill:#612A60;" d="M215.8,62.4c-0.4,2.4-0.7,4.8-1.1,7.2c-2.3,11.8-7.9,22.1-16,30.8c-8.3,8.9-17.1,17.4-25.7,26.1
		c-5.3,5.3-10.5,10.7-15.9,16c-9,8.9-19.8,13.8-32.3,15.4c-12.5,1.6-24.3-0.6-35.1-7.3c-9.3-5.7-16.1-13.8-21.7-23
		c-0.7-1.1-1.3-2.2-1.9-3.4c-0.3-0.6-0.6-1.1-0.8-1.5c6-6,12-11.9,17.9-17.9c0.1,0.3,0.4,0.8,0.7,1.4c2.5,5.3,5.5,10.4,9.5,14.8
		c9.9,10.8,24.6,13.9,38.8,8.4c5.3-2,9.8-5,13.8-9.1c11.5-11.7,23.3-23.1,34.7-34.9c12.7-13.2,12.8-34.1,0.3-47.5
		c-4.5-4.9-10.5-7.5-16.7-9.5c-11.5-3.6-21.9-0.8-31,6.4c-5.7,4.4-10.7,9.7-16,14.6c-0.8,0.7-1.3,0.9-2.4,0.5
		c-9-3.4-18.2-4.8-27.8-2.6c-0.7,0.2-1.5,0.2-2.4,0.3c1.1-1.1,1.9-2.1,2.8-3c8.5-8.1,16.9-16.4,25.7-24.3c6.6-6,14-11,22.4-14.4
		c15.3-6.3,30.3-5.1,44.8,2.2c17.5,8.9,28.9,22.9,34,42c0.7,2.4,1,4.9,1.5,7.4C215.8,59.1,215.8,60.8,215.8,62.4z"/>
	<path style="fill:#612A60;" d="M0.2,153.8c0.5-3.5,0.9-7.1,1.6-10.5C4,132.6,9,123.2,16.7,115.4C28.7,103,41.1,90.9,53.2,78.6
		c5.3-5.4,10.9-10.2,17.8-13.2C94,55.2,121,58.8,139,82.1c3.3,4.3,6.1,9,9.1,13.3c-6.2,6.2-12.2,12.2-18.2,18.1
		c-0.6-1.1-1.4-2.5-2.1-3.9c-2.7-4.8-5.7-9.5-9.6-13.3c-10.3-10.1-22.4-12.2-35.9-7.8c-5.6,1.8-10.4,4.8-14.6,9
		c-11.8,12-23.9,23.6-35.6,35.7c-9.8,10.2-11.3,22.4-7,35.5c3.3,10.1,10.6,16.4,20.4,20.1c14.7,5.6,27.5,2,38.8-8.3
		c3.6-3.3,6.9-6.8,10.3-10.3c0.7-0.7,1.2-0.6,2.1-0.4c3.3,0.8,6.6,1.9,9.9,2.1c6.2,0.3,12.5,0.7,18.9-1c-0.2,0.4-0.3,0.5-0.4,0.7
		c-9.5,9.5-18.9,19.2-28.5,28.5c-8.5,8.2-18.9,12.4-30.6,13.7c-0.6,0.1-1.2,0.2-1.7,0.3c-2.8,0-5.6,0-8.4,0
		c-0.4-0.1-0.7-0.2-1.1-0.3c-11.9-1.1-22.6-5.3-32-12.7c-10.7-8.5-18-19.3-20.9-32.7c-0.7-3.3-1-6.7-1.5-10
		C0.2,156.9,0.2,155.4,0.2,153.8z"/>
</g>
</svg>
