<?xml version="1.0" encoding="utf-8"?>
<!-- Generator: Adobe Illustrator 21.1.0, SVG Export Plug-In . SVG Version: 6.00 Build 0)  -->
<svg version="1.1" id="Layer_1" xmlns="http://www.w3.org/2000/svg" xmlns:xlink="http://www.w3.org/1999/xlink" x="0px" y="0px"
	 viewBox="0 0 216 216" style="enable-background:new 0 0 216 216;" xml:space="preserve">
<g>
	<path style="fill:#612A60;" d="M97.2,64.4L67.9,83.6c-0.1,0.1-0.2,0.1-0.3,0.2c-0.9,0.5-1.6,1.4-1.8,2.5L53.1,147
		c-0.6,3.1,2.6,5.6,5.4,4.2l42.7-20.9c1.3-0.6,2.1-2,2.1-3.4l-0.3-59.3C103.1,64.6,99.7,62.8,97.2,64.4z"/>
	<path style="fill:#612A60;" d="M57.3,82.5l-18-17.6c-1.8-1.8-4.9-1.3-6,0.9L0.4,128.5c-1,1.9-0.3,4.2,1.6,5.2l36.3,18.8
		c2.2,1.2,5-0.1,5.5-2.6l14-66.9C57.6,82.8,57.5,82.7,57.3,82.5z"/>
	<path style="fill:#612A60;" d="M148,83.6l-30.5-20c-2.5-1.7-5.9,0.2-5.9,3.2l0.3,59.7c0,1.4,0.8,2.8,2.1,3.4l43.1,21.1
		c2.9,1.4,6.1-1.1,5.4-4.3l-14.4-63.1C148.1,83.6,148,83.6,148,83.6z"/>
	<path style="fill:#612A60;" d="M182.6,65.8c-1.2-2.3-4.2-2.7-6-0.9l-18,17.6c0,0,0,0,0,0c-1,1-1.5,2.3-1.2,3.7l14.5,63.8
		c0.6,2.4,3.3,3.7,5.5,2.5l36.4-18.9c1.9-1,2.6-3.3,1.6-5.2L182.6,65.8z"/>
</g>
</svg>
