<?xml version="1.0" encoding="utf-8"?>
<!-- Generator: Adobe Illustrator 21.1.0, SVG Export Plug-In . SVG Version: 6.00 Build 0)  -->
<svg version="1.1" id="Layer_1" xmlns="http://www.w3.org/2000/svg" xmlns:xlink="http://www.w3.org/1999/xlink" x="0px" y="0px"
	 viewBox="0 0 216 216" style="enable-background:new 0 0 216 216;" xml:space="preserve">
<g id="yxIWZc_1_">
	<g>
		<path style="fill:#FFFFFF;" d="M108.1,215.3C48.8,215.4,0.7,167.4,0.7,108C0.6,48.7,48.7,0.7,108,0.7
			c59.3,0,107.2,47.8,107.3,107.2C215.5,167.1,167.5,215.2,108.1,215.3z M108.1,90c-10,0-20,0-30,0c-9.4,0-14.9,5.5-14.9,14.8
			c-0.1,14.1-0.1,28.2,0,42.3c0,9.2,5.6,14.6,14.8,14.7c20.1,0,40.2,0,60.2,0c1.4,0,2.9-0.1,4.3-0.4c6.6-1.7,10.4-6.8,10.4-14.4
			c0-14,0-28,0-42.1c0-1.6-0.2-3.4-0.6-4.9c-1.7-6.4-6.7-9.9-14-10C128.2,90,118.1,90,108.1,90z M143.7,81.1
			c0.4-12.5-5.4-25.2-17.5-31.6c-12.7-6.7-30.9-5.3-41.7,3.4c-8.9,7.3-12.3,17-12.4,28.2c4,0,7.6,0,11.2,0
			c0.8-15.7,13.2-24.1,23.8-24.5c11-0.4,24.7,7.9,25.6,24.5C136.4,81.1,140,81.1,143.7,81.1z"/>
		<path style="fill:#FFFFFF;" d="M102.7,132.9c0-0.7,0-1.4,0-2c0.1-2.4-0.2-4.2-2.3-6.1c-4.3-3.8-3.9-10.4,0.3-14.3
			c4.5-4.1,11.6-3.7,15.6,1c3.7,4.3,3,10.6-1.5,14.3c-0.7,0.6-1.3,1.8-1.4,2.8c-0.2,3.2,0,6.3-0.1,9.5c0,2.3-0.9,4.2-3.1,5.1
			c-1.9,0.8-4.1,0.8-5.5-0.8c-1.1-1.2-1.7-3-2-4.6C102.4,136.3,102.7,134.6,102.7,132.9z"/>
	</g>
</g>
</svg>
