<?xml version="1.0" encoding="utf-8"?>
<!-- Generator: Adobe Illustrator 21.1.0, SVG Export Plug-In . SVG Version: 6.00 Build 0)  -->
<svg version="1.1" id="Layer_1" xmlns="http://www.w3.org/2000/svg" xmlns:xlink="http://www.w3.org/1999/xlink" x="0px" y="0px"
	 viewBox="0 0 216 216" style="enable-background:new 0 0 216 216;" xml:space="preserve">
<g>
	<g>
		<path style="fill:#FFFFFF;" d="M179.6,17.1H36.4C16.3,17.1,0,33.4,0,53.5v71.3c0,19,14.7,34.5,33.3,36.1v-4.5
			c-16.1-1.6-28.8-15-28.8-31.6V53.5c0-17.6,14.3-31.9,31.9-31.9h143.2c17.6,0,31.9,14.3,31.9,31.9v71.3c0,17.6-14.3,31.9-31.9,31.9
			H88v4.5h91.6c20.1,0,36.4-16.3,36.4-36.4V53.5C216,33.4,199.7,17.1,179.6,17.1z"/>
		<g>
			<path style="fill:#FFFFFF;" d="M179.6,24.3H36.4c-16.1,0-29.2,13.1-29.2,29.2v71.3c0,14.1,10,25.9,23.4,28.6v-7.5
				c-9.3-2.6-16.1-11-16.1-21.1V53.5c0-12.1,9.9-22,22-22h143.2c12.1,0,22,9.9,22,22v71.3c0,12.1-9.9,22-22,22H90.7v7.2h88.9
				c16.1,0,29.2-13.1,29.2-29.2V53.5C208.8,37.4,195.7,24.3,179.6,24.3z"/>
		</g>
	</g>
	<path style="fill:#FFFFFF;" d="M62.5,47.5c-20.3,0-36.8,16.5-36.8,36.8s16.5,36.8,36.8,36.8s36.8-16.5,36.8-36.8
		S82.8,47.5,62.5,47.5z M62.5,114c-16.4,0-29.7-13.3-29.7-29.7c0-16.4,13.3-29.7,29.7-29.7s29.7,13.3,29.7,29.7
		C92.2,100.7,78.9,114,62.5,114z"/>
	<path style="fill-rule:evenodd;clip-rule:evenodd;fill:#FFFFFF;" d="M179.6,24.3H36.4c-16.1,0-29.2,13.1-29.2,29.2v71.3
		c0,15,11.4,27.3,26.1,28.9v-39.2c-7.9-7.6-12.8-18.3-12.8-30.1c0-23.2,18.8-42,42-42c23.2,0,42,18.8,42,42
		c0,13.6-6.5,25.6-16.5,33.3v36.3h91.6c16.1,0,29.2-13.1,29.2-29.2V53.5C208.8,37.4,195.7,24.3,179.6,24.3z M192.5,128.9
		c0,1.3-1.1,2.4-2.4,2.4h-74.5c-1.3,0-2.4-1.1-2.4-2.4v-2.2c0-1.3,1.1-2.4,2.4-2.4h74.5c1.3,0,2.4,1.1,2.4,2.4V128.9z M192.5,109.5
		c0,1.3-1.1,2.4-2.4,2.4h-74.5c-1.3,0-2.4-1.1-2.4-2.4v-2.2c0-1.3,1.1-2.4,2.4-2.4h74.5c1.3,0,2.4,1.1,2.4,2.4V109.5z M192.5,90.1
		c0,1.3-1.1,2.4-2.4,2.4h-74.5c-1.3,0-2.4-1.1-2.4-2.4v-2.2c0-1.3,1.1-2.4,2.4-2.4h74.5c1.3,0,2.4,1.1,2.4,2.4V90.1z M192.5,70.7
		c0,1.3-1.1,2.4-2.4,2.4h-74.5c-1.3,0-2.4-1.1-2.4-2.4v-2.2c0-1.3,1.1-2.4,2.4-2.4h74.5c1.3,0,2.4,1.1,2.4,2.4V70.7z"/>
	<path style="fill:#FFFFFF;" d="M85.6,119.6v68.1l-0.3-0.2v0.2L59.5,167l-23.2,19.1v-0.2l-0.3,0.2v-69.6c-2-1.7-3.8-3.5-5.4-5.5
		v86.5l28.8-23.6l31.3,25.1v-83.3C89.1,117,87.4,118.4,85.6,119.6z"/>
</g>
</svg>
