<?xml version="1.0" encoding="utf-8"?>
<!-- Generator: Adobe Illustrator 21.1.0, SVG Export Plug-In . SVG Version: 6.00 Build 0)  -->
<svg version="1.1" id="Layer_1" xmlns="http://www.w3.org/2000/svg" xmlns:xlink="http://www.w3.org/1999/xlink" x="0px" y="0px"
	 viewBox="0 0 216 216" style="enable-background:new 0 0 216 216;" xml:space="preserve">
<g>
	<path style="fill:#FFFFFF;" d="M159,106.3c5.2,0,10.2,1.2,14.8,3.2c-1.2-33.9-17.5-60.2-45.4-72.4c-0.7-5.9-5.6-10.7-11.1-10.7
		c0,0,0,0-0.1,0l-8.5-1.4c-1.5-0.6-3.5-0.9-6.3-1l-1.1-0.2c-2-4.3-6.3-7.2-11.1-7.2c-4.8,0-9.1,2.9-11.1,7.2l-15,2.6
		c-6.1,0-11.2,4.5-12.1,10.8C23.1,49.8,6.5,77.5,6.5,113.4v8.8c-4,2.1-6.5,6.2-6.5,10.7c0,1.1,0.3,2.2,1,3.2
		c1.5,2.3,5.5,9.8,5.5,16.4c0,10.3,6,19.5,16.2,24.6l1.9,1c7.5,4.1,23.1,12.6,65.7,12.6c41.6,0,57.4-8.1,65.1-12.3
		c-8.1-0.8-16-4.3-22-10.3c-5.5-5.5-8.9-12.4-10-19.9c-7.8,0.5-18.4,0.7-33.1,0.7c-47.6,0-52.5-2.7-58.2-5.9
		c-0.5-0.3-1.1-0.6-1.7-0.9c-1.5-0.7-2-2.5-1.3-4c0.7-1.5,2.5-2,4-1.3c0.7,0.4,1.3,0.7,1.9,1c4.9,2.7,2.1,5.2,55.3,5.2
		c14.6,0,25-0.3,32.6-0.7c0.1-9.6,3.8-18.6,10.6-25.4C140.3,110,149.4,106.3,159,106.3z M75.2,55.1c0,1.9-1.5,3.4-3.4,3.4h-2.9
		c-1.9,0-3.4-1.5-3.4-3.4V32.7c0-1.9,1.5-3.4,3.4-3.4h2.9c1.9,0,3.4,1.5,3.4,3.4V55.1z M95.7,79.8c0,1.6-1.3,3-3,3H89
		c-1.6,0-3-1.3-3-3V28.6c0-1.6,1.3-3,3-3h3.8c1.6,0,3,1.3,3,3V79.8z M113.9,55.1c0,1.9-1.5,3.4-3.4,3.4h-2.9c-1.9,0-3.4-1.5-3.4-3.4
		V32.7c0-1.9,1.5-3.4,3.4-3.4h2.9c1.9,0,3.4,1.5,3.4,3.4V55.1z"/>
	<path style="fill:#FFFFFF;" d="M213.3,183.6l-25.6-25.6c6.7-12.3,4.8-28.1-5.6-38.5c-12.7-12.7-33.3-12.7-46,0
		c-12.7,12.7-12.7,33.3,0,46c10.4,10.4,26.2,12.3,38.5,5.6l25.6,25.6c3.6,3.6,9.5,3.6,13.1,0C216.9,193.1,216.9,187.2,213.3,183.6z
		 M158.9,169.1c-14.1,0-25.5-11.4-25.5-25.5c0-14.1,11.4-25.5,25.5-25.5c1.6,0,3.1,0.2,4.5,0.5c0.1,0,0.2,0,0.3,0
		c11.8,2.3,20.7,12.6,20.7,25C184.4,157.6,173,169.1,158.9,169.1z"/>
</g>
</svg>
