<?xml version="1.0" encoding="utf-8"?>
<!-- Generator: Adobe Illustrator 21.1.0, SVG Export Plug-In . SVG Version: 6.00 Build 0)  -->
<svg version="1.1" id="Layer_1" xmlns="http://www.w3.org/2000/svg" xmlns:xlink="http://www.w3.org/1999/xlink" x="0px" y="0px"
	 viewBox="0 0 216 216" style="enable-background:new 0 0 216 216;" xml:space="preserve">
<path style="fill:#612A60;" d="M116.1,3.3c-1.8-1.9-4.4-2.9-7-2.9c-2.6,0-5.2,1.1-7,2.9c-0.5,0.6-12.7,13-22.2,31.9h58.4
	C128.8,16.3,116.6,3.9,116.1,3.3z"/>
<path style="fill:#612A60;" d="M109.1,0.4c-2.6,0-5.2,1.1-7,2.9c-0.5,0.6-12.7,13-22.2,31.9h58.4c-9.5-18.9-21.6-31.3-22.2-31.9
	C114.2,1.5,111.7,0.4,109.1,0.4z"/>
<g>
	<path style="fill:#612A60;" d="M109.1,68.9c-12.9,0-23.4,10.5-23.4,23.4c0,12.9,10.5,23.4,23.4,23.4c12.9,0,23.4-10.5,23.4-23.4
		C132.5,79.4,122,68.9,109.1,68.9z M119.4,95c-1.5,0-2.7-1.2-2.7-2.7c0-4.2-3.4-7.6-7.6-7.6c-1.5,0-2.7-1.2-2.7-2.7s1.2-2.7,2.7-2.7
		c7.2,0,13,5.8,13,13C122.1,93.8,120.8,95,119.4,95z"/>
</g>
<path style="fill:#612A60;" d="M68.4,124.9c-0.8-8.1-1.5-15-2.1-18.3c-0.7-3.6-1.2-7-1.6-10.2c-8.2,3.2-19.8,13.2-22.1,32.7
	C37.5,172.6,58,183.9,58,183.9l0.2,0c0,0,7-15.3,15-23.7C71.3,153,69.8,138.1,68.4,124.9z"/>
<path style="fill:#612A60;" d="M175.8,129c-2.3-19.7-14.1-29.7-22.3-32.8c-0.4,3.2-1,6.7-1.6,10.3c-0.6,3.3-1.3,10.3-2.1,18.3
	c-1.3,13.1-2.8,27.9-4.7,35.1c8,8.3,15.2,23.9,15.2,23.9l0.2,0C160.5,183.9,181,172.6,175.8,129z"/>
<g>
	<g>
		<path style="fill:#612A60;" d="M98,176.6c0,8.3,9.5,15.4,11,16.4c1.5-1.1,11-8.1,11-16.4c0-1.8-0.2-3.4-0.5-4.9h-21
			C98.2,173.2,98,174.8,98,176.6z"/>
		<path style="fill:#612A60;" d="M130.4,171.7h-5.6c0.3,1.6,0.4,3.2,0.4,4.9c0,4.8-2.1,9.6-6.2,14.3c-2.9,3.4-6.1,5.7-7,6.3l-3,2.1
			l-3-2.1c-0.9-0.6-4-3-7-6.3c-4.1-4.7-6.2-9.5-6.2-14.3c0-1.7,0.2-3.4,0.4-4.9h-5.6c-0.8,3.2-1.3,6.8-1.3,10.6
			c0,7.6,3.9,15.8,11.4,23.8c5.1,5.5,10.2,9.1,11.3,9.9c1-0.7,6.1-4.3,11.3-9.9c7.4-8,11.4-16.3,11.4-23.8
			C131.7,178.5,131.3,174.9,130.4,171.7z"/>
	</g>
</g>
<path style="fill:#612A60;" d="M143.7,40.7H74.4C69.6,51.9,66,65,66,79c0,7.4,1,16.2,2.9,27c1.6,8.9,3.9,42.4,6.8,53.6
	c1.4,5.5,6.4,9.4,12.1,9.4h42.3c5.7,0,10.7-3.8,12.1-9.4c2.9-11.2,5.2-44.7,6.8-53.6c2-10.8,2.9-19.7,2.9-27
	C152.1,65,148.6,51.9,143.7,40.7z M109.1,121.1c-15.9,0-28.8-12.9-28.8-28.8c0-15.9,12.9-28.8,28.8-28.8c15.9,0,28.8,12.9,28.8,28.8
	C137.9,108.2,125,121.1,109.1,121.1z"/>
</svg>
