<?xml version="1.0" encoding="utf-8"?>
<!-- Generator: Adobe Illustrator 21.1.0, SVG Export Plug-In . SVG Version: 6.00 Build 0)  -->
<svg version="1.1" id="Layer_1" xmlns="http://www.w3.org/2000/svg" xmlns:xlink="http://www.w3.org/1999/xlink" x="0px" y="0px"
	 viewBox="0 0 216 216" style="enable-background:new 0 0 216 216;" xml:space="preserve">
<g>
	<path style="fill:#612A60;" d="M-684.8,164.3c-51.4,0-87.9-15.7-94.8-36.1c-0.6,2.1-1.1,4.1-1.1,6.1c0,2,0,21.9,0,24
		c0,23.2,39.6,42,95.9,42c56.3,0,95.9-18.8,95.9-42c0-2,0-21.9,0-24c0-2-0.5-4.1-1.1-6.1C-596.9,148.6-633.3,164.3-684.8,164.3z"/>
	<path style="fill:#612A60;" d="M-684.8,110.3c-51.3,0-87.7-15.6-94.7-36c-0.7,2-1.2,4-1.2,6c0,2,0,21.9,0,24
		c0,23.2,39.6,42,95.9,42c56.3,0,95.9-18.8,95.9-42c0-2,0-21.9,0-24c0-2-0.5-4-1.2-6C-597.1,94.7-633.4,110.3-684.8,110.3z"/>
	<path style="fill:#612A60;" d="M-684.8-15.5c-56.3,0-95.9,18.8-95.9,42c0,2,0,21.9,0,24c0,23.2,39.6,42,95.9,42
		c56.3,0,95.9-18.8,95.9-42c0-2,0-21.9,0-24C-588.8,3.3-628.5-15.5-684.8-15.5z"/>
</g>
<path style="fill:#612A60;" d="M151.5,81.9c-2.5,0.5-5.4,1.3-8.4,1.8c-3.2,0.6-5.2,2.1-6,5.4c-0.6,2.4-1.6,4.6-2.5,6.9
	c-1,2.4-0.8,4.6,0.9,6.6c1.8,2.2,3.6,4.5,5.4,6.8c1.9,2.5,1.9,4.7-0.2,7c-2.7,3.1-5.5,6.1-8.3,9.2c-2.2,2.4-4.4,2.7-7.2,1
	c-2.6-1.6-5.2-3.3-7.7-4.9c-2.2-1.4-4.4-1.3-6.7-0.1c-2.3,1.2-4.7,2.3-7.1,3.3c-2.4,1-3.8,2.7-4,5.3c-0.3,2.9-0.6,5.8-1,8.6
	c-0.4,3.2-2.1,4.7-5.3,4.9c-4,0.2-7.9,0.4-11.9,0.6c-3.4,0.1-5.2-1.3-6-4.7c-0.6-2.5-1.1-5.1-1.6-7.6c-0.6-3.1-2.1-5.1-5.3-5.9
	c-2.1-0.5-4.1-1.3-6-2.2c-2.9-1.3-5.4-1-7.8,1.1c-1.9,1.7-4,3.3-6.1,4.9c-2.8,2.1-5,2-7.6-0.3c-2.9-2.6-5.8-5.2-8.7-7.8
	c-2.6-2.4-2.9-4.6-1-7.5c1.5-2.5,3.1-4.9,4.7-7.3c1.5-2.3,1.4-4.5,0.1-6.9C35,98,34,95.8,33.1,93.5c-1.1-2.8-3-4.2-6-4.5
	c-2.7-0.2-5.5-0.6-8.2-1c-3.2-0.4-4.8-2.1-5-5.3c-0.2-4-0.4-8.1-0.6-12.1c-0.1-3.2,1.3-4.9,4.4-5.7c2.9-0.7,5.8-1.4,8.7-2
	c2.4-0.5,3.9-1.9,4.7-4.2c1-2.7,1.9-5.5,3-8.2c0.8-2.2,0.7-4.2-0.9-6c-1.9-2.3-3.7-4.6-5.5-7c-2.1-2.8-2.1-4.9,0.3-7.6
	c2.6-2.9,5.2-5.8,7.8-8.6c2.2-2.4,4.6-2.7,7.4-1c2.5,1.6,5,3.2,7.5,4.8c2.1,1.4,4.2,1.3,6.5,0.1c2.4-1.3,4.8-2.3,7.3-3.4
	c2.4-1,3.8-2.7,4-5.3c0.3-3,0.7-5.9,1.1-8.9c0.4-3,2.1-4.6,5.2-4.8c4.1-0.3,8.2-0.5,12.3-0.6c3-0.1,4.8,1.4,5.5,4.4
	c0.6,2.8,1.3,5.7,1.8,8.5c0.5,2.6,2,4.2,4.4,5c2.8,0.9,5.5,1.8,8.2,3c2.4,1,4.5,0.6,6.4-0.9c2.4-1.9,4.8-3.8,7.2-5.7
	c2-1.6,4.4-1.6,6.3,0.1c3.4,2.9,6.8,6,10,9c1.9,1.8,2.1,4.1,0.7,6.5c-1.6,2.6-3.2,5.2-4.9,7.7c-1.5,2.3-1.6,4.4-0.2,6.9
	c1.3,2.3,2.3,4.8,3.3,7.3c1,2.3,2.7,3.6,5.2,3.9c3,0.3,5.9,0.6,8.9,0.9c3,0.4,4.6,2.1,4.8,5.2c0.3,4.1,0.5,8.2,0.6,12.3
	C155.4,79.1,154.3,80.8,151.5,81.9z M111.2,61.8C105,47.2,87.5,40.2,72.8,46.5C58,52.8,51.1,70.2,57.4,85
	c6.3,14.7,23.6,21.7,38.3,15.4C110.6,94.1,117.6,76.7,111.2,61.8z"/>
<path style="fill:#612A60;" d="M120.3,214.1c-2.2,1-11.1-2.6-11.5-4.4c-0.2-1-0.2-2.2,0.2-3.1c2.7-5.6-0.9-8.7-4.5-11.7
	c-0.7-0.6-2.2-0.7-3.2-0.5c-1.7,0.2-3.4,0.7-5.1,1.1c-1.7,0.4-2.9-0.1-3.5-1.7c-1-2.3-2-4.6-3-6.9c-0.7-1.7-0.2-3,1.3-4
	c0.2-0.1,0.4-0.2,0.6-0.3c7.5-4.9,5.3-2.6,5.5-11.4c0-1-1-2.2-1.8-2.9c-1.3-1.1-3-1.9-4.4-2.8c-1.6-1-2.1-2.4-1.4-4.1
	c0.9-2.2,1.8-4.4,2.7-6.6c0.7-1.7,1.9-2.5,3.8-2c1.6,0.4,3.1,0.6,4.7,1.1c1.8,0.5,3.3,0,4.5-1.5c0.3-0.4,0.7-0.9,1.1-1.2
	c3.8-2.4,3.8-5.7,2.6-9.5c-1.2-3.6-0.7-4.2,2.8-5.7c1.8-0.8,3.5-1.5,5.3-2.3c1.9-0.8,3.2-0.3,4.3,1.3c0.1,0.1,0.1,0.3,0.2,0.4
	c3.9,6.2,3.9,6.3,11.3,5.7c1-0.1,2.2-0.9,2.9-1.8c1.1-1.3,1.9-3,2.8-4.5c1-1.6,2.3-2.1,4.1-1.4c2.2,0.9,4.4,1.8,6.6,2.7
	c1.8,0.8,2.5,2.1,2.1,4c0,0.1,0,0.2-0.1,0.2c-2.3,5-0.8,9,3.6,11.9c1,0.7,2.5,1.1,3.7,1.1c1.6,0,3.3-0.7,4.9-1.1
	c1.9-0.5,3.3,0.1,4.1,1.9c0.9,2.2,1.9,4.3,2.8,6.5c0.7,1.7,0.4,3.1-1.2,4.2c-0.2,0.1-0.3,0.3-0.6,0.4c-5.3,1.8-6.5,5.9-5.8,10.8
	c0.2,1.2,0.9,2.6,1.8,3.4c1.3,1.2,2.9,1.9,4.4,2.8c1.6,1,2.1,2.4,1.4,4.1c-0.9,2.3-1.8,4.5-2.8,6.8c-0.7,1.6-2,2.3-3.7,1.9
	c-0.2,0-0.5-0.1-0.7-0.2c-4.6-2-8.3-0.9-11.3,3.2c-1.1,1.5-1.8,2.8-1.3,4.6c0.4,1.5,0.7,3.1,1.1,4.7c0.4,1.8-0.2,3-1.8,3.7
	c-2.3,1-4.6,2-6.9,3c-1.7,0.7-3,0.2-3.9-1.3c-0.1-0.1-0.1-0.3-0.2-0.4c-4-6.2-4-6.2-11.3-5.7c-1.1,0.1-2.3,1-3.1,1.9
	c-1.1,1.2-1.8,2.8-2.7,4.2C121.1,213.4,120.5,213.9,120.3,214.1z M113.7,180.5c3.8,9,13.9,13.1,22.8,9.3c9-3.8,13.2-14.2,9.3-23.1
	c-3.8-8.8-14.3-12.9-23.1-9C114.1,161.5,110,171.7,113.7,180.5z"/>
<path style="fill:#612A60;" d="M193.4,94.2c-0.3,1.2-0.5,2.2-0.9,3.2c-1.2,3.3-0.5,6.2,2.4,8c1,0.6,2.6,0.5,3.9,0.4
	c3.1-0.2,3.5,0,4.3,3c1.3,5,1.3,5-3.2,7.3c-2.8,1.5-3.4,6.9-0.9,9c3.6,3,3.9,2.5,1.2,7.2c-2,3.3-1.9,3.3-5.5,2
	c-4.4-1.7-8.3,1.2-7.8,5.9c0.4,3.8,0.3,3.9-3.4,4.9c-0.8,0.2-1.6,0.5-2.4,0.7c-1.7,0.5-3,0.1-3.4-1.7c-0.9-3.8-3.7-4.7-7-4.7
	c-0.8,0-1.7,0.4-2.4,0.9c-0.8,0.6-1.3,1.5-1.9,2.2c-0.3,0.3-0.5,0.8-0.9,1c-2.8,1.1-4.3-1.4-6.3-2.3c-0.7-0.3-1-1.8-1.3-2.8
	c-0.1-0.3,0.2-0.7,0.3-1.1c1.4-3.9,1.1-5.5-2-8.2c-0.8-0.6-2.3-0.7-3.4-0.6c-4,0.3-4,0.3-5.2-3.5c-0.2-0.6-0.3-1.2-0.5-1.8
	c-0.8-2-0.2-3.5,1.9-4c4-0.9,4.3-4.2,4.3-7.3c0-1-1.2-2.2-2.1-3c-3-2.6-3.1-2.6-1.1-6c0.4-0.7,0.8-1.3,1.1-2
	c0.8-1.6,2.1-2.2,3.6-1.2c3.5,2.2,6.1,0.6,8.4-1.8c0.7-0.7,0.7-2.2,0.9-3.3c0.3-1.5-0.1-3.9,0.7-4.4c2-1.1,4.4-1.5,6.7-1.8
	c0.6-0.1,1.5,1.3,2,2.2c1.7,3.5,3.5,4.8,7.2,4.2c1.1-0.2,2.3-1.4,3.1-2.4c2.4-2.7,2.3-2.8,5.4-1C190.6,92.6,191.9,93.3,193.4,94.2z
	 M164.4,122c2.7,6.2,9.7,9,15.8,6.4c6.1-2.6,8.9-9.8,6.2-15.9c-2.7-6.1-9.8-8.9-15.9-6.2C164.5,108.8,161.8,115.9,164.4,122z"/>
</svg>
