<?xml version="1.0" encoding="utf-8"?>
<!-- Generator: Adobe Illustrator 16.0.0, SVG Export Plug-In . SVG Version: 6.00 Build 0)  -->
<!DOCTYPE svg PUBLIC "-//W3C//DTD SVG 1.1//EN" "http://www.w3.org/Graphics/SVG/1.1/DTD/svg11.dtd">
<svg version="1.1" id="Layer_1" xmlns="http://www.w3.org/2000/svg" xmlns:xlink="http://www.w3.org/1999/xlink" x="0px" y="0px"
	 width="792px" height="612px" viewBox="0 0 792 612" enable-background="new 0 0 792 612" xml:space="preserve">
<path fill="none" stroke="#010101" stroke-width="0.724" stroke-linecap="round" stroke-linejoin="round" stroke-miterlimit="10" d="
	M590.2,205.92c0-5.898-4.835-10.68-10.8-10.68l0,0"/>
<line fill="none" stroke="#010101" stroke-width="0.72" stroke-linecap="round" stroke-linejoin="round" stroke-miterlimit="10" x1="590.2" y1="205.92" x2="590.2" y2="390.6"/>
<path fill="none" stroke="#010101" stroke-width="0.724" stroke-linecap="round" stroke-linejoin="round" stroke-miterlimit="10" d="
	M579.4,401.28c5.965,0,10.8-4.782,10.8-10.681"/>
<line fill="none" stroke="#010101" stroke-width="0.72" stroke-linecap="round" stroke-linejoin="round" stroke-miterlimit="10" x1="579.4" y1="401.4" x2="211.84" y2="401.4"/>
<path fill="none" stroke="#010101" stroke-width="0.724" stroke-linecap="round" stroke-linejoin="round" stroke-miterlimit="10" d="
	M201.04,390.6c0,5.898,4.835,10.681,10.8,10.681l0,0"/>
<line fill="none" stroke="#010101" stroke-width="0.72" stroke-linecap="round" stroke-linejoin="round" stroke-miterlimit="10" x1="201.04" y1="390.6" x2="201.04" y2="205.92"/>
<path fill="none" stroke="#010101" stroke-width="0.724" stroke-linecap="round" stroke-linejoin="round" stroke-miterlimit="10" d="
	M211.84,195.24c-5.964,0-10.8,4.781-10.8,10.68l0,0"/>
<line fill="none" stroke="#010101" stroke-width="0.72" stroke-linecap="round" stroke-linejoin="round" stroke-miterlimit="10" x1="211.84" y1="195.12" x2="579.4" y2="195.12"/>
<path fill="#010101" d="M232.21,213.819c0,2.138-0.527,3.649-1.583,4.534c-1.055,0.885-2.562,1.328-4.521,1.328h-3.752v6.399h-3.729
	v-18h7.731c1.782,0,3.204,0.467,4.264,1.4C231.68,210.415,232.21,211.86,232.21,213.819 M228.48,213.833
	c0-0.918-0.239-1.574-0.716-1.965c-0.477-0.393-1.147-0.589-2.01-0.589h-3.399v5.201h3.399c0.862,0,1.533-0.212,2.01-0.636
	C228.242,215.42,228.48,214.75,228.48,213.833"/>
<polyline fill="#010101" points="245.416,208.08 249.295,208.08 243.156,226.08 239.763,226.08 233.717,208.08 237.593,208.08 
	241.469,221.745 245.416,208.08 "/>
<path fill="#010101" d="M264.978,207.545L264.978,207.545 M261.248,220.612c0.115,0.78,0.341,1.363,0.677,1.75
	c0.614,0.701,1.667,1.052,3.158,1.052c0.893,0,1.618-0.095,2.175-0.283c1.055-0.363,1.583-1.037,1.583-2.023
	c0-0.575-0.253-1.021-0.761-1.339c-0.507-0.306-1.327-0.583-2.458-0.832l-1.931-0.434c-1.899-0.431-3.21-0.896-3.934-1.395
	c-1.225-0.833-1.838-2.139-1.838-3.917c0-1.619,0.591-2.964,1.772-4.037c1.181-1.072,2.916-1.609,5.203-1.609
	c1.91,0,3.54,0.501,4.888,1.504c1.35,1.002,2.058,2.457,2.123,4.363h-3.596c-0.065-1.099-0.538-1.879-1.417-2.342
	c-0.586-0.305-1.315-0.458-2.187-0.458c-0.969,0-1.742,0.198-2.321,0.594c-0.579,0.396-0.868,0.95-0.868,1.661
	c0,0.653,0.286,1.14,0.857,1.462c0.366,0.215,1.145,0.468,2.336,0.758l3.086,0.757c1.354,0.332,2.372,0.768,3.056,1.309
	c1.058,0.838,1.586,2.053,1.586,3.643c0,1.633-0.63,2.988-1.89,4.065c-1.259,1.077-3.038,1.616-5.336,1.616
	c-2.349,0-4.196-0.521-5.541-1.564c-1.345-1.043-2.018-2.478-2.018-4.303H261.248"/>
<path fill="#010101" d="M281.894,208.08L281.894,208.08 M285.642,208.08h4.085l-5.835,10.909v7.091h-3.729v-6.761l-6.236-11.239
	h4.433l3.735,7.839L285.642,208.08"/>
<path fill="#010101" d="M298.544,207.545L298.544,207.545 M294.814,220.612c0.115,0.78,0.34,1.363,0.677,1.75
	c0.614,0.701,1.667,1.052,3.158,1.052c0.892,0,1.617-0.095,2.175-0.283c1.055-0.363,1.583-1.037,1.583-2.023
	c0-0.575-0.254-1.021-0.761-1.339c-0.507-0.306-1.327-0.583-2.458-0.832l-1.932-0.434c-1.898-0.431-3.21-0.896-3.934-1.395
	c-1.225-0.833-1.837-2.139-1.837-3.917c0-1.619,0.591-2.964,1.772-4.037c1.181-1.072,2.916-1.609,5.203-1.609
	c1.91,0,3.539,0.501,4.888,1.504c1.35,1.002,2.057,2.457,2.123,4.363h-3.597c-0.065-1.099-0.537-1.879-1.417-2.342
	c-0.586-0.305-1.315-0.458-2.186-0.458c-0.969,0-1.743,0.198-2.321,0.594c-0.579,0.396-0.868,0.95-0.868,1.661
	c0,0.653,0.286,1.14,0.857,1.462c0.366,0.215,1.145,0.468,2.336,0.758l3.086,0.757c1.354,0.332,2.373,0.768,3.056,1.309
	c1.058,0.838,1.586,2.053,1.586,3.643c0,1.633-0.63,2.988-1.89,4.065c-1.259,1.077-3.037,1.616-5.336,1.616
	c-2.349,0-4.196-0.521-5.541-1.564c-1.345-1.043-2.018-2.478-2.018-4.303H294.814"/>
<polyline fill="#010101" points="322.12,208.08 322.12,211.279 316.66,211.279 316.66,226.08 312.931,226.08 312.931,211.279 
	307.469,211.279 307.469,208.08 322.12,208.08 "/>
<polyline fill="#010101" points="337.628,211.279 328.114,211.279 328.114,215.147 336.848,215.147 336.848,218.212 
	328.114,218.212 328.114,222.879 338.069,222.879 338.069,226.08 324.385,226.08 324.385,208.08 337.628,208.08 337.628,211.279 "/>
<path fill="#010101" d="M352.85,208.08h5.366v18h-3.463v-12.176c0-0.35,0.004-0.841,0.013-1.472
	c0.009-0.631,0.013-1.117,0.013-1.458l-3.407,15.107h-3.651l-3.382-15.107c0,0.341,0.003,0.828,0.011,1.458
	c0.009,0.631,0.013,1.122,0.013,1.472v12.176h-3.461v-18h5.426l3.274,14.154L352.85,208.08"/>
<path fill="#010101" d="M376.471,208.08c1.112,0.016,2.038,0.147,2.777,0.392c1.257,0.415,2.276,1.176,3.056,2.282
	c0.625,0.895,1.051,1.864,1.279,2.906s0.341,2.036,0.341,2.979c0,2.394-0.479,4.421-1.437,6.082c-1.3,2.239-3.305,3.358-6.017,3.358
	h-7.73v-18H376.471 M372.469,211.279v11.601h3.454c1.769,0,3.001-0.864,3.698-2.591c0.382-0.949,0.574-2.079,0.574-3.39
	c0-1.809-0.286-3.197-0.859-4.166c-0.571-0.969-1.708-1.453-3.413-1.453H372.469"/>
<path fill="#010101" d="M393.914,207.679L393.914,207.679 M385.92,217.146c0-3.134,0.835-5.55,2.505-7.249
	c1.449-1.479,3.293-2.218,5.535-2.218c2.999,0,5.192,0.982,6.578,2.948c0.765,1.103,1.177,2.209,1.233,3.32h-3.729
	c-0.246-0.81-0.559-1.421-0.939-1.833c-0.684-0.734-1.697-1.101-3.038-1.101c-1.366,0-2.443,0.541-3.232,1.622
	c-0.789,1.082-1.183,2.611-1.183,4.59c0,1.978,0.417,3.459,1.249,4.445c0.833,0.985,1.893,1.478,3.178,1.478
	c1.318,0,2.323-0.426,3.013-1.277c0.383-0.458,0.7-1.143,0.953-2.057h3.729c-0.323,1.972-1.15,3.577-2.48,4.813
	c-1.328,1.235-3.03,1.853-5.105,1.853c-2.57,0-4.589-0.828-6.058-2.484C386.656,222.329,385.92,220.045,385.92,217.146"/>
<path fill="#010101" d="M419.227,208.08c1.112,0.016,2.038,0.147,2.776,0.392c1.258,0.415,2.276,1.176,3.057,2.282
	c0.625,0.895,1.051,1.864,1.278,2.906s0.342,2.036,0.342,2.979c0,2.394-0.479,4.421-1.437,6.082c-1.3,2.239-3.306,3.358-6.017,3.358
	h-7.73v-18H419.227 M415.225,211.279v11.601h3.454c1.769,0,3.001-0.864,3.697-2.591c0.383-0.949,0.574-2.079,0.574-3.39
	c0-1.809-0.286-3.197-0.858-4.166s-1.709-1.453-3.413-1.453H415.225"/>
<path fill="#010101" d="M431.074,208.08L431.074,208.08 M432.938,226.08h-3.729v-18h3.729V226.08"/>
<path fill="#010101" d="M443.061,207.545L443.061,207.545 M439.332,220.612c0.115,0.78,0.34,1.363,0.677,1.75
	c0.614,0.701,1.666,1.052,3.157,1.052c0.893,0,1.617-0.095,2.176-0.283c1.055-0.363,1.582-1.037,1.582-2.023
	c0-0.575-0.254-1.021-0.762-1.339c-0.508-0.306-1.326-0.583-2.457-0.832l-1.932-0.434c-1.898-0.431-3.211-0.896-3.934-1.395
	c-1.226-0.833-1.838-2.139-1.838-3.917c0-1.619,0.59-2.964,1.771-4.037c1.182-1.072,2.916-1.609,5.203-1.609
	c1.91,0,3.539,0.501,4.889,1.504s2.057,2.457,2.122,4.363h-3.597c-0.064-1.099-0.537-1.879-1.417-2.342
	c-0.586-0.305-1.315-0.458-2.187-0.458c-0.969,0-1.742,0.198-2.32,0.594c-0.579,0.396-0.869,0.95-0.869,1.661
	c0,0.653,0.286,1.14,0.857,1.462c0.366,0.215,1.145,0.468,2.336,0.758l3.086,0.757c1.354,0.332,2.373,0.768,3.057,1.309
	c1.058,0.838,1.586,2.053,1.586,3.643c0,1.633-0.629,2.988-1.89,4.065c-1.259,1.077-3.038,1.616-5.336,1.616
	c-2.349,0-4.196-0.521-5.541-1.564c-1.345-1.043-2.018-2.478-2.018-4.303H439.332"/>
<path fill="#010101" d="M460.512,207.679L460.512,207.679 M452.519,217.146c0-3.134,0.835-5.55,2.505-7.249
	c1.449-1.479,3.294-2.218,5.535-2.218c2.999,0,5.191,0.982,6.578,2.948c0.765,1.103,1.176,2.209,1.233,3.32h-3.729
	c-0.245-0.81-0.559-1.421-0.939-1.833c-0.684-0.734-1.696-1.101-3.037-1.101c-1.367,0-2.443,0.541-3.232,1.622
	c-0.789,1.082-1.184,2.611-1.184,4.59c0,1.978,0.416,3.459,1.249,4.445c0.833,0.985,1.894,1.478,3.178,1.478
	c1.319,0,2.323-0.426,3.013-1.277c0.383-0.458,0.701-1.143,0.953-2.057h3.729c-0.323,1.972-1.151,3.577-2.48,4.813
	c-1.329,1.235-3.03,1.853-5.106,1.853c-2.569,0-4.589-0.828-6.058-2.484C453.254,222.329,452.519,220.045,452.519,217.146"/>
<path fill="#010101" d="M479.158,207.545L479.158,207.545 M487.683,217.013c0,3.212-0.903,5.672-2.712,7.38
	c-1.354,1.391-3.311,2.087-5.872,2.087s-4.519-0.696-5.874-2.087c-1.816-1.708-2.725-4.167-2.725-7.38
	c0-3.276,0.908-5.736,2.725-7.378c1.355-1.393,3.312-2.089,5.874-2.089s4.519,0.696,5.872,2.089
	C486.779,211.277,487.683,213.736,487.683,217.013 M479.109,223.147c1.486,0,2.664-0.532,3.535-1.596
	c0.873-1.065,1.309-2.578,1.309-4.539c0-1.954-0.436-3.465-1.309-4.532c-0.871-1.067-2.049-1.601-3.535-1.601
	c-1.483,0-2.668,0.532-3.553,1.596s-1.327,2.576-1.327,4.538c0,1.961,0.442,3.474,1.327,4.539
	C476.441,222.616,477.626,223.147,479.109,223.147"/>
<path fill="#010101" d="M497.938,208.08L497.938,208.08 M490.48,208.08h3.901l7.153,12.463V208.08h3.463v18h-3.72l-7.337-12.782
	v12.782h-3.461V208.08"/>
<path fill="#010101" d="M516.053,208.08L516.053,208.08 M508.594,208.08h3.902l7.153,12.463V208.08h3.463v18h-3.72l-7.337-12.782
	v12.782h-3.462V208.08"/>
<polyline fill="#010101" points="540.085,211.279 530.571,211.279 530.571,215.147 539.305,215.147 539.305,218.212 
	530.571,218.212 530.571,222.879 540.525,222.879 540.525,226.08 526.842,226.08 526.842,208.08 540.085,208.08 540.085,211.279 "/>
<path fill="#010101" d="M550.551,207.679L550.551,207.679 M542.559,217.146c0-3.134,0.834-5.55,2.504-7.249
	c1.449-1.479,3.295-2.218,5.535-2.218c2.999,0,5.191,0.982,6.578,2.948c0.765,1.103,1.176,2.209,1.233,3.32h-3.729
	c-0.244-0.81-0.558-1.421-0.939-1.833c-0.684-0.734-1.695-1.101-3.037-1.101c-1.366,0-2.443,0.541-3.232,1.622
	c-0.789,1.082-1.184,2.611-1.184,4.59c0,1.978,0.416,3.459,1.249,4.445c0.834,0.985,1.894,1.478,3.179,1.478
	c1.318,0,2.322-0.426,3.013-1.277c0.382-0.458,0.7-1.143,0.952-2.057h3.729c-0.323,1.972-1.15,3.577-2.48,4.813
	c-1.329,1.235-3.03,1.853-5.105,1.853c-2.57,0-4.589-0.828-6.058-2.484C543.294,222.329,542.559,220.045,542.559,217.146"/>
<polyline fill="#010101" points="574.525,208.08 574.525,211.279 569.064,211.279 569.064,226.08 565.336,226.08 565.336,211.279 
	559.873,211.279 559.873,208.08 574.525,208.08 "/>
<path fill="#010101" d="M221.074,250.732L221.074,250.732 M221.155,259c1.098,0,1.891-0.392,2.379-1.176
	c0.49-0.784,0.735-1.685,0.735-2.704c0-1.078-0.283-1.944-0.848-2.601c-0.565-0.658-1.337-0.986-2.317-0.986
	c-0.95,0-1.726,0.326-2.327,0.977c-0.6,0.65-0.9,1.609-0.9,2.878c0,1.015,0.257,1.871,0.772,2.567S220,259,221.155,259
	 M221.037,250.466c1.592,0,2.771,0.516,3.534,1.547c0.598,0.804,0.896,1.833,0.896,3.086c0,1.357-0.342,2.485-1.025,3.384
	c-0.801,1.055-1.944,1.583-3.429,1.583c-1.386,0-2.477-0.462-3.272-1.386c-0.708-0.89-1.062-2.016-1.062-3.377
	c0-1.229,0.303-2.28,0.91-3.154C218.365,251.027,219.514,250.466,221.037,250.466"/>
<path fill="#010101" d="M232.525,253.312c0-0.651-0.245-1.093-0.735-1.326c-0.269-0.125-0.638-0.188-1.106-0.188h-2.42v3.067h2.42
	c0.546,0,0.99-0.114,1.33-0.343C232.354,254.294,232.525,253.89,232.525,253.312 M227.065,250.732h4.026
	c0.796,0,1.434,0.227,1.912,0.679c0.48,0.451,0.72,1.086,0.72,1.903c0,0.703-0.213,1.315-0.639,1.837
	c-0.425,0.521-1.09,0.782-1.995,0.782h-2.826v3.866h-1.198V250.732"/>
<path fill="#010101" d="M238.784,250.732L238.784,250.732 M235.454,250.732h6.525v1.067h-5.327v2.801h4.928v1.067h-4.928v3.065h5.46
	v1.067h-6.658V250.732"/>
<path fill="#010101" d="M243.842,250.732h4.044c0.667,0,1.217,0.101,1.648,0.302c0.821,0.386,1.232,1.101,1.232,2.144
	c0,0.542-0.111,0.986-0.332,1.331c-0.22,0.345-0.527,0.623-0.922,0.833c0.36,0.147,0.631,0.341,0.813,0.581
	c0.184,0.24,0.286,0.63,0.308,1.17v1.241c0.014,0.312,0.045,0.545,0.096,0.697c0.083,0.26,0.228,0.428,0.437,0.502v0.266h-1.513
	c-0.053-0.077-0.095-0.177-0.128-0.3c-0.031-0.124-0.061-0.361-0.09-0.712v-1.504c-0.027-0.589-0.24-0.983-0.637-1.183
	c-0.227-0.111-0.581-0.167-1.063-0.167h-2.694v3.866h-1.198V250.732 M247.771,254.867c0.554,0,0.992-0.114,1.314-0.341
	c0.323-0.229,0.484-0.641,0.484-1.235c0-0.639-0.226-1.074-0.677-1.307c-0.242-0.123-0.564-0.184-0.968-0.184h-2.884v3.067H247.771"
	/>
<path fill="#010101" d="M255.96,250.732L255.96,250.732 M255.222,250.732h1.356l3.242,9.067h-1.264l-0.96-2.799h-3.463l-0.994,2.799
	h-1.268L255.222,250.732 M257.228,255.934l-1.335-3.892l-1.382,3.892H257.228"/>
<polyline fill="#010101" points="267.678,250.732 267.678,251.799 264.616,251.799 264.616,259.8 263.416,259.8 263.416,251.799 
	260.354,251.799 260.354,250.732 267.678,250.732 "/>
<polyline fill="#010101" points="269.142,250.866 270.34,250.866 270.34,259.8 269.142,259.8 269.142,250.866 "/>
<path fill="#010101" d="M275.8,250.466L275.8,250.466 M272.337,250.732h1.346l4.646,7.459v-7.459h1.065v9.067h-1.277l-4.716-7.569
	v7.569h-1.065V250.732"/>
<path fill="#010101" d="M284.987,250.732L284.987,250.732 M285.125,250.466c0.85,0,1.585,0.162,2.205,0.486
	c0.9,0.465,1.45,1.281,1.652,2.448h-1.198c-0.15-0.65-0.46-1.124-0.93-1.421c-0.47-0.298-1.063-0.446-1.779-0.446
	c-0.85,0-1.565,0.317-2.147,0.952c-0.58,0.635-0.87,1.581-0.87,2.837c0,1.086,0.236,1.971,0.708,2.653s1.242,1.024,2.308,1.024
	c0.817,0,1.494-0.241,2.029-0.724c0.536-0.482,0.808-1.263,0.813-2.342h-2.795v-1.067h3.994v4.933h-0.821l-0.317-1.159
	c-0.41,0.463-0.773,0.784-1.091,0.964c-0.535,0.308-1.212,0.461-2.032,0.461c-1.062,0-1.977-0.35-2.743-1.05
	c-0.834-0.877-1.25-2.081-1.25-3.611c0-1.529,0.411-2.745,1.232-3.647C282.872,250.897,283.883,250.466,285.125,250.466"/>
<path fill="#010101" d="M297.902,250.732L297.902,250.732 M298.083,250.466c1.134,0,2.013,0.299,2.638,0.898
	c0.626,0.598,0.974,1.276,1.042,2.036h-1.198c-0.135-0.573-0.404-1.028-0.806-1.363c-0.401-0.336-0.965-0.504-1.691-0.504
	c-0.886,0-1.602,0.317-2.147,0.951c-0.543,0.632-0.815,1.603-0.815,2.91c0,1.071,0.248,1.94,0.745,2.606
	c0.496,0.667,1.235,1,2.218,1c0.906,0,1.596-0.354,2.068-1.062c0.251-0.373,0.438-0.863,0.562-1.472h1.198
	c-0.106,0.964-0.458,1.771-1.054,2.422c-0.716,0.785-1.681,1.178-2.895,1.178c-1.046,0-1.925-0.321-2.636-0.962
	c-0.936-0.848-1.404-2.157-1.404-3.928c0-1.344,0.35-2.446,1.048-3.308C295.711,250.934,296.754,250.466,298.083,250.466"/>
<path fill="#010101" d="M307.09,250.466L307.09,250.466 M304.692,250.732v5.629c0,0.66,0.124,1.208,0.371,1.646
	c0.368,0.662,0.987,0.992,1.858,0.992c1.043,0,1.753-0.357,2.128-1.073c0.203-0.387,0.304-0.909,0.304-1.565v-5.629h1.198v5.107
	c0,1.118-0.148,1.978-0.444,2.58c-0.545,1.098-1.574,1.646-3.086,1.646c-1.514,0-2.541-0.549-3.081-1.646
	c-0.297-0.603-0.446-1.462-0.446-2.58v-5.107H304.692"/>
<path fill="#010101" d="M312.548,250.732h4.044c0.667,0,1.217,0.101,1.648,0.302c0.821,0.386,1.232,1.101,1.232,2.144
	c0,0.542-0.111,0.986-0.332,1.331c-0.22,0.345-0.527,0.623-0.922,0.833c0.36,0.147,0.631,0.341,0.813,0.581
	c0.184,0.24,0.286,0.63,0.308,1.17v1.241c0.014,0.312,0.045,0.545,0.096,0.697c0.083,0.26,0.228,0.428,0.437,0.502v0.266h-1.513
	c-0.053-0.077-0.095-0.177-0.127-0.3c-0.031-0.124-0.062-0.361-0.09-0.712v-1.504c-0.027-0.589-0.24-0.983-0.637-1.183
	c-0.227-0.111-0.581-0.167-1.063-0.167h-2.694v3.866h-1.198V250.732 M316.476,254.867c0.554,0,0.992-0.114,1.314-0.341
	c0.323-0.229,0.484-0.641,0.484-1.235c0-0.639-0.226-1.074-0.677-1.307c-0.241-0.123-0.564-0.184-0.968-0.184h-2.884v3.067H316.476"
	/>
<path fill="#010101" d="M321.469,250.732h4.044c0.667,0,1.217,0.101,1.648,0.302c0.821,0.386,1.231,1.101,1.231,2.144
	c0,0.542-0.11,0.986-0.332,1.331c-0.22,0.345-0.528,0.623-0.922,0.833c0.36,0.147,0.631,0.341,0.813,0.581
	c0.184,0.24,0.286,0.63,0.308,1.17v1.241c0.014,0.312,0.045,0.545,0.096,0.697c0.082,0.26,0.228,0.428,0.437,0.502v0.266h-1.513
	c-0.052-0.077-0.095-0.177-0.127-0.3c-0.031-0.124-0.061-0.361-0.09-0.712v-1.504c-0.027-0.589-0.24-0.983-0.638-1.183
	c-0.226-0.111-0.581-0.167-1.063-0.167h-2.694v3.866h-1.198V250.732 M325.397,254.867c0.554,0,0.992-0.114,1.314-0.341
	c0.322-0.229,0.484-0.641,0.484-1.235c0-0.639-0.226-1.074-0.677-1.307c-0.241-0.123-0.563-0.184-0.967-0.184h-2.884v3.067H325.397"
	/>
<path fill="#010101" d="M333.721,250.732L333.721,250.732 M330.391,250.732h6.525v1.067h-5.327v2.801h4.927v1.067h-4.927v3.065h5.46
	v1.067h-6.658V250.732"/>
<path fill="#010101" d="M342.109,250.466L342.109,250.466 M338.646,250.732h1.347l4.646,7.459v-7.459h1.065v9.067h-1.277
	l-4.715-7.569v7.569h-1.065V250.732"/>
<polyline fill="#010101" points="354.092,250.732 354.092,251.799 351.031,251.799 351.031,259.8 349.831,259.8 349.831,251.799 
	346.769,251.799 346.769,250.732 354.092,250.732 "/>
<path fill="#010101" d="M221.056,278.453L221.056,278.453 M221.136,286.719c1.094,0,1.884-0.392,2.372-1.175
	c0.487-0.784,0.731-1.685,0.731-2.704c0-1.077-0.282-1.944-0.846-2.601c-0.562-0.657-1.331-0.986-2.306-0.986
	c-0.947,0-1.721,0.326-2.319,0.977c-0.598,0.65-0.896,1.609-0.896,2.878c0,1.015,0.256,1.871,0.769,2.567
	C219.153,286.371,219.985,286.719,221.136,286.719 M221.018,278.187c1.586,0,2.761,0.516,3.523,1.546
	c0.595,0.804,0.893,1.833,0.893,3.086c0,1.357-0.34,2.486-1.021,3.384c-0.799,1.055-1.938,1.583-3.417,1.583
	c-1.381,0-2.468-0.462-3.261-1.386c-0.705-0.89-1.057-2.016-1.057-3.376c0-1.229,0.302-2.28,0.905-3.154
	C218.357,278.748,219.502,278.187,221.018,278.187"/>
<path fill="#010101" d="M232.465,281.032c0-0.651-0.244-1.093-0.731-1.325c-0.269-0.125-0.636-0.188-1.103-0.188h-2.411v3.067h2.411
	c0.543,0,0.985-0.114,1.324-0.343C232.295,282.014,232.465,281.61,232.465,281.032 M227.025,278.453h4.011
	c0.794,0,1.43,0.226,1.907,0.679c0.477,0.451,0.716,1.085,0.716,1.903c0,0.703-0.212,1.315-0.637,1.838
	c-0.424,0.521-1.086,0.782-1.988,0.782h-2.814v3.866h-1.195V278.453"/>
<path fill="#010101" d="M238.701,278.453L238.701,278.453 M235.384,278.453h6.5v1.067h-5.306v2.801h4.909v1.067h-4.909v3.065h5.439
	v1.067h-6.634V278.453"/>
<path fill="#010101" d="M243.743,278.453h4.029c0.665,0,1.212,0.101,1.643,0.302c0.817,0.386,1.226,1.101,1.226,2.143
	c0,0.542-0.11,0.986-0.33,1.332c-0.219,0.345-0.525,0.623-0.918,0.833c0.359,0.147,0.629,0.341,0.812,0.581
	c0.182,0.24,0.284,0.63,0.305,1.17v1.241c0.014,0.312,0.045,0.545,0.094,0.698c0.083,0.26,0.229,0.427,0.437,0.502v0.266h-1.507
	c-0.053-0.078-0.095-0.177-0.127-0.3c-0.031-0.124-0.062-0.361-0.09-0.712v-1.503c-0.027-0.589-0.239-0.983-0.635-1.183
	c-0.225-0.111-0.578-0.167-1.058-0.167h-2.685v3.866h-1.194V278.453 M247.656,282.587c0.551,0,0.987-0.114,1.309-0.341
	c0.321-0.229,0.482-0.641,0.482-1.236c0-0.639-0.224-1.074-0.673-1.307c-0.24-0.123-0.562-0.184-0.964-0.184h-2.873v3.067H247.656"
	/>
<path fill="#010101" d="M255.816,278.453L255.816,278.453 M255.081,278.453h1.352l3.229,9.067h-1.258l-0.958-2.799h-3.45
	l-0.99,2.799h-1.262L255.081,278.453 M257.082,283.654l-1.332-3.893l-1.376,3.893H257.082"/>
<polyline fill="#010101" points="267.49,278.453 267.49,279.52 264.439,279.52 264.439,287.52 263.245,287.52 263.245,279.52 
	260.194,279.52 260.194,278.453 267.49,278.453 "/>
<polyline fill="#010101" points="268.951,278.585 270.145,278.585 270.145,287.52 268.951,287.52 268.951,278.585 "/>
<path fill="#010101" d="M275.584,278.187L275.584,278.187 M272.134,278.453h1.343l4.627,7.458v-7.458h1.061v9.067h-1.273
	l-4.697-7.569v7.569h-1.062V278.453"/>
<path fill="#010101" d="M284.738,278.453L284.738,278.453 M284.875,278.187c0.848,0,1.58,0.162,2.197,0.485
	c0.898,0.465,1.446,1.281,1.646,2.449h-1.194c-0.149-0.65-0.458-1.124-0.926-1.421c-0.469-0.297-1.06-0.446-1.772-0.446
	c-0.848,0-1.561,0.318-2.139,0.953c-0.578,0.635-0.866,1.581-0.866,2.837c0,1.086,0.235,1.971,0.705,2.653
	c0.472,0.682,1.238,1.023,2.301,1.023c0.814,0,1.487-0.241,2.021-0.724c0.534-0.482,0.804-1.263,0.81-2.342h-2.787v-1.067h3.981
	v4.933h-0.819l-0.315-1.159c-0.409,0.462-0.771,0.784-1.087,0.964c-0.532,0.307-1.208,0.461-2.025,0.461
	c-1.059,0-1.97-0.35-2.734-1.05c-0.83-0.877-1.245-2.081-1.245-3.611c0-1.529,0.409-2.744,1.228-3.647
	C282.632,278.617,283.639,278.187,284.875,278.187"/>
<polyline fill="#010101" points="294.828,278.453 297.542,286.174 300.255,278.453 301.521,278.453 298.188,287.52 296.879,287.52 
	293.562,278.453 294.828,278.453 "/>
<path fill="#010101" d="M306.496,278.453L306.496,278.453 M306.576,286.719c1.094,0,1.884-0.392,2.372-1.175
	c0.487-0.784,0.731-1.685,0.731-2.704c0-1.077-0.282-1.944-0.846-2.601c-0.562-0.657-1.331-0.986-2.306-0.986
	c-0.947,0-1.72,0.326-2.319,0.977c-0.597,0.65-0.896,1.609-0.896,2.878c0,1.015,0.256,1.871,0.769,2.567
	C304.593,286.371,305.425,286.719,306.576,286.719 M306.458,278.187c1.586,0,2.761,0.516,3.523,1.546
	c0.595,0.804,0.892,1.833,0.892,3.086c0,1.357-0.34,2.486-1.021,3.384c-0.799,1.055-1.938,1.583-3.417,1.583
	c-1.381,0-2.468-0.462-3.261-1.386c-0.705-0.89-1.057-2.016-1.057-3.376c0-1.229,0.302-2.28,0.905-3.154
	C303.797,278.748,304.942,278.187,306.458,278.187"/>
<polyline fill="#010101" points="312.333,278.453 313.527,278.453 313.527,286.453 318.038,286.453 318.038,287.52 312.333,287.52 
	312.333,278.453 "/>
<polyline fill="#010101" points="325.731,278.453 325.731,279.52 322.681,279.52 322.681,287.52 321.486,287.52 321.486,279.52 
	318.436,279.52 318.436,278.453 325.731,278.453 "/>
<path fill="#010101" d="M330.243,278.453L330.243,278.453 M329.507,278.453h1.352l3.229,9.067h-1.258l-0.958-2.799h-3.45
	l-0.99,2.799h-1.262L329.507,278.453 M331.508,283.654l-1.332-3.893l-1.376,3.893H331.508"/>
<path fill="#010101" d="M339.13,278.453L339.13,278.453 M339.267,278.187c0.847,0,1.58,0.162,2.197,0.485
	c0.897,0.465,1.446,1.281,1.646,2.449h-1.194c-0.148-0.65-0.458-1.124-0.926-1.421c-0.469-0.297-1.06-0.446-1.772-0.446
	c-0.848,0-1.561,0.318-2.14,0.953c-0.578,0.635-0.866,1.581-0.866,2.837c0,1.086,0.235,1.971,0.705,2.653
	c0.471,0.682,1.238,1.023,2.301,1.023c0.813,0,1.487-0.241,2.021-0.724s0.804-1.263,0.81-2.342h-2.786v-1.067h3.98v4.933h-0.819
	l-0.315-1.159c-0.409,0.462-0.771,0.784-1.087,0.964c-0.533,0.307-1.208,0.461-2.025,0.461c-1.059,0-1.97-0.35-2.734-1.05
	c-0.83-0.877-1.245-2.081-1.245-3.611c0-1.529,0.41-2.744,1.228-3.647C337.024,278.617,338.031,278.187,339.267,278.187"/>
<path fill="#010101" d="M348.55,278.453L348.55,278.453 M345.233,278.453h6.501v1.067h-5.306v2.801h4.909v1.067h-4.909v3.065h5.439
	v1.067h-6.634V278.453"/>
<path fill="#010101" d="M216.734,306.172h1.643l2.557,7.666l2.565-7.666h1.637v9.068h-1.067v-5.329c0-0.184,0-0.489,0-0.915
	s0-0.883,0-1.371l-2.548,7.615h-1.174l-2.546-7.63v0.278c0,0.222,0,0.561,0,1.014s0,0.785,0,0.998v5.34h-1.067V306.172"/>
<path fill="#010101" d="M230.337,306.172L230.337,306.172 M229.598,306.172h1.357l3.248,9.068h-1.266l-0.962-2.8h-3.469l-0.996,2.8
	h-1.27L229.598,306.172 M231.608,311.374l-1.338-3.893l-1.382,3.893H231.608"/>
<polyline fill="#010101" points="236.378,315.24 234.964,315.24 238.148,310.547 235.219,306.172 236.627,306.172 238.877,309.641 
	241.109,306.172 242.513,306.172 239.521,310.648 242.592,315.24 241.191,315.24 238.817,311.513 236.378,315.24 "/>
<polyline fill="#010101" points="244.073,306.306 245.273,306.306 245.273,315.24 244.073,315.24 244.073,306.306 "/>
<path fill="#010101" d="M247.274,306.172h1.642l2.558,7.666l2.565-7.666h1.637v9.068h-1.067v-5.329c0-0.184,0-0.489,0-0.915
	s0-0.883,0-1.371l-2.548,7.615h-1.174l-2.546-7.63v0.278c0,0.222,0,0.561,0,1.014s0,0.785,0,0.998v5.34h-1.067V306.172"/>
<path fill="#010101" d="M261.276,305.906L261.276,305.906 M258.876,306.172v5.628c0,0.66,0.124,1.209,0.371,1.646
	c0.368,0.662,0.987,0.992,1.86,0.992c1.046,0,1.757-0.357,2.132-1.072c0.204-0.388,0.306-0.91,0.306-1.566v-5.628h1.2v5.108
	c0,1.117-0.149,1.978-0.446,2.579c-0.546,1.098-1.576,1.646-3.09,1.646c-1.517,0-2.545-0.549-3.086-1.646
	c-0.297-0.602-0.446-1.462-0.446-2.579v-5.108H258.876"/>
<path fill="#010101" d="M266.612,306.172h1.643l2.558,7.666l2.565-7.666h1.637v9.068h-1.067v-5.329c0-0.184,0-0.489,0-0.915
	s0-0.883,0-1.371l-2.548,7.615h-1.174l-2.546-7.63v0.278c0,0.222,0,0.561,0,1.014s0,0.785,0,0.998v5.34h-1.067V306.172"/>
<path fill="#010101" d="M283.416,306.172L283.416,306.172 M281.016,312.308c0.028,0.509,0.143,0.923,0.347,1.241
	c0.39,0.594,1.077,0.891,2.062,0.891c0.441,0,0.843-0.068,1.206-0.205c0.701-0.26,1.052-0.729,1.052-1.407
	c0-0.508-0.15-0.87-0.452-1.086c-0.307-0.191-0.786-0.357-1.438-0.499l-1.2-0.258c-0.785-0.168-1.341-0.361-1.667-0.58
	c-0.562-0.38-0.844-0.947-0.844-1.702c0-0.816,0.276-1.486,0.829-2.01c0.553-0.524,1.336-0.786,2.352-0.786
	c0.931,0,1.723,0.233,2.375,0.699c0.652,0.467,0.979,1.211,0.979,2.235h-1.2c-0.059-0.497-0.185-0.877-0.377-1.142
	c-0.356-0.484-0.962-0.726-1.819-0.726c-0.688,0-1.184,0.152-1.487,0.458c-0.301,0.305-0.452,0.659-0.452,1.062
	c0,0.445,0.18,0.77,0.54,0.975c0.236,0.133,0.77,0.297,1.602,0.493l1.237,0.292c0.596,0.141,1.057,0.333,1.382,0.578
	c0.56,0.426,0.84,1.045,0.84,1.857c0,1.011-0.357,1.732-1.071,2.168c-0.714,0.434-1.544,0.65-2.49,0.65
	c-1.104,0-1.967-0.288-2.591-0.865c-0.624-0.574-0.93-1.352-0.917-2.333H281.016"/>
<path fill="#010101" d="M291.951,305.906L291.951,305.906 M287.928,306.172h1.378l2.58,4.359l2.572-4.359h1.378l-3.351,5.414v3.654
	h-1.2v-3.654L287.928,306.172"/>
<path fill="#010101" d="M300.087,306.172L300.087,306.172 M297.687,312.308c0.027,0.509,0.143,0.923,0.347,1.241
	c0.39,0.594,1.078,0.891,2.062,0.891c0.441,0,0.843-0.068,1.206-0.205c0.701-0.26,1.052-0.729,1.052-1.407
	c0-0.508-0.15-0.87-0.452-1.086c-0.306-0.191-0.786-0.357-1.438-0.499l-1.2-0.258c-0.785-0.168-1.34-0.361-1.667-0.58
	c-0.562-0.38-0.844-0.947-0.844-1.702c0-0.816,0.276-1.486,0.829-2.01c0.552-0.524,1.336-0.786,2.351-0.786
	c0.931,0,1.723,0.233,2.375,0.699c0.653,0.467,0.979,1.211,0.979,2.235h-1.2c-0.059-0.497-0.184-0.877-0.377-1.142
	c-0.356-0.484-0.962-0.726-1.818-0.726c-0.689,0-1.185,0.152-1.487,0.458c-0.301,0.305-0.452,0.659-0.452,1.062
	c0,0.445,0.18,0.77,0.54,0.975c0.236,0.133,0.77,0.297,1.601,0.493l1.238,0.292c0.596,0.141,1.057,0.333,1.382,0.578
	c0.56,0.426,0.84,1.045,0.84,1.857c0,1.011-0.357,1.732-1.071,2.168c-0.713,0.434-1.543,0.65-2.49,0.65
	c-1.104,0-1.968-0.288-2.591-0.865c-0.624-0.574-0.929-1.352-0.917-2.333H297.687"/>
<polyline fill="#010101" points="311.689,306.172 311.689,307.239 308.622,307.239 308.622,315.24 307.422,315.24 307.422,307.239 
	304.354,307.239 304.354,306.172 311.689,306.172 "/>
<path fill="#010101" d="M316.356,306.172L316.356,306.172 M313.022,306.172h6.535v1.067h-5.334v2.802h4.935v1.066h-4.935v3.065
	h5.467v1.067h-6.667V306.172"/>
<path fill="#010101" d="M321.291,306.172h1.643l2.558,7.666l2.565-7.666h1.637v9.068h-1.067v-5.329c0-0.184,0-0.489,0-0.915
	s0-0.883,0-1.371l-2.548,7.615h-1.174l-2.546-7.63v0.278c0,0.222,0,0.561,0,1.014s0,0.785,0,0.998v5.34h-1.067V306.172"/>
<polyline fill="#010101" points="335.701,306.172 338.429,313.894 341.155,306.172 342.428,306.172 339.078,315.24 337.761,315.24 
	334.428,306.172 335.701,306.172 "/>
<path fill="#010101" d="M347.431,306.172L347.431,306.172 M347.511,314.439c1.099,0,1.893-0.393,2.383-1.176
	c0.491-0.783,0.737-1.686,0.737-2.703c0-1.078-0.283-1.945-0.85-2.602c-0.566-0.657-1.34-0.986-2.321-0.986
	c-0.951,0-1.728,0.326-2.329,0.977c-0.601,0.649-0.902,1.609-0.902,2.878c0,1.016,0.257,1.871,0.772,2.566
	C345.518,314.092,346.354,314.439,347.511,314.439 M347.393,305.906c1.594,0,2.774,0.516,3.54,1.547
	c0.599,0.804,0.898,1.832,0.898,3.086c0,1.357-0.342,2.486-1.027,3.385c-0.804,1.055-1.949,1.582-3.435,1.582
	c-1.389,0-2.481-0.461-3.277-1.385c-0.709-0.891-1.063-2.016-1.063-3.377c0-1.229,0.304-2.28,0.911-3.154
	C344.717,306.468,345.868,305.906,347.393,305.906"/>
<polyline fill="#010101" points="353.297,306.172 354.498,306.172 354.498,314.173 359.031,314.173 359.031,315.24 353.297,315.24 
	353.297,306.172 "/>
<polyline fill="#010101" points="366.768,306.172 366.768,307.239 363.7,307.239 363.7,315.24 362.5,315.24 362.5,307.239 
	359.433,307.239 359.433,306.172 366.768,306.172 "/>
<path fill="#010101" d="M371.301,306.172L371.301,306.172 M370.562,306.172h1.357l3.248,9.068h-1.266l-0.962-2.8h-3.469l-0.996,2.8
	h-1.27L370.562,306.172 M372.572,311.374l-1.338-3.893l-1.382,3.893H372.572"/>
<path fill="#010101" d="M380.235,306.172L380.235,306.172 M380.375,305.906c0.851,0,1.587,0.162,2.208,0.486
	c0.901,0.465,1.453,1.281,1.654,2.449h-1.2c-0.15-0.65-0.461-1.124-0.932-1.421c-0.47-0.298-1.064-0.447-1.781-0.447
	c-0.851,0-1.567,0.318-2.149,0.953c-0.581,0.635-0.872,1.58-0.872,2.837c0,1.086,0.236,1.97,0.708,2.653
	c0.473,0.682,1.243,1.023,2.312,1.023c0.819,0,1.496-0.241,2.033-0.724c0.536-0.483,0.807-1.263,0.813-2.342h-2.799v-1.067h4v4.934
	h-0.823l-0.317-1.159c-0.41,0.463-0.774,0.784-1.093,0.964c-0.535,0.308-1.214,0.461-2.036,0.461c-1.063,0-1.979-0.35-2.747-1.05
	c-0.833-0.878-1.25-2.081-1.25-3.611c0-1.528,0.411-2.744,1.232-3.646C378.118,306.337,379.13,305.906,380.375,305.906"/>
<path fill="#010101" d="M389.705,306.172L389.705,306.172 M386.371,306.172h6.534v1.067h-5.334v2.802h4.935v1.066h-4.935v3.065
	h5.467v1.067h-6.667V306.172"/>
<path fill="#010101" d="M220.405,333.893L220.405,333.893 M218.003,340.027c0.028,0.509,0.144,0.923,0.347,1.241
	c0.391,0.594,1.08,0.891,2.066,0.891c0.441,0,0.843-0.067,1.206-0.204c0.702-0.26,1.054-0.729,1.054-1.408
	c0-0.508-0.151-0.869-0.452-1.086c-0.306-0.191-0.786-0.357-1.44-0.498l-1.202-0.259c-0.787-0.168-1.343-0.361-1.669-0.58
	c-0.563-0.38-0.846-0.947-0.846-1.702c0-0.816,0.277-1.486,0.831-2.01c0.554-0.524,1.338-0.786,2.354-0.786
	c0.934,0,1.727,0.233,2.379,0.699c0.653,0.467,0.98,1.212,0.98,2.235h-1.202c-0.059-0.496-0.185-0.877-0.378-1.142
	c-0.356-0.484-0.962-0.726-1.819-0.726c-0.69,0-1.187,0.152-1.489,0.457c-0.303,0.306-0.454,0.659-0.454,1.062
	c0,0.445,0.18,0.77,0.54,0.975c0.236,0.133,0.771,0.297,1.605,0.493l1.239,0.293c0.596,0.14,1.058,0.332,1.384,0.577
	c0.56,0.427,0.84,1.046,0.84,1.858c0,1.01-0.357,1.732-1.072,2.167c-0.715,0.435-1.546,0.651-2.494,0.651
	c-1.104,0-1.968-0.289-2.593-0.866c-0.624-0.574-0.93-1.352-0.917-2.333H218.003"/>
<polyline fill="#010101" points="225.479,333.893 226.681,333.893 226.681,337.628 231.355,337.628 231.355,333.893 
	232.557,333.893 232.557,342.96 231.355,342.96 231.355,338.692 226.681,338.692 226.681,342.96 225.479,342.96 225.479,333.893 "/>
<path fill="#010101" d="M238.298,333.893L238.298,333.893 M238.379,342.159c1.1,0,1.896-0.392,2.387-1.176
	c0.491-0.783,0.737-1.685,0.737-2.703c0-1.078-0.284-1.944-0.851-2.601c-0.566-0.658-1.341-0.986-2.323-0.986
	c-0.953,0-1.73,0.325-2.333,0.977c-0.601,0.65-0.902,1.609-0.902,2.878c0,1.016,0.257,1.871,0.772,2.567
	C236.382,341.812,237.22,342.159,238.379,342.159 M238.261,333.626c1.596,0,2.777,0.516,3.543,1.547c0.6,0.804,0.9,1.833,0.9,3.087
	c0,1.357-0.343,2.485-1.03,3.384c-0.804,1.056-1.95,1.583-3.438,1.583c-1.39,0-2.484-0.462-3.281-1.386
	c-0.709-0.891-1.063-2.016-1.063-3.377c0-1.229,0.304-2.28,0.911-3.154C235.582,334.188,236.734,333.626,238.261,333.626"/>
<path fill="#010101" d="M244.308,333.893h4.056c0.668,0,1.219,0.101,1.652,0.302c0.824,0.387,1.235,1.101,1.235,2.144
	c0,0.542-0.11,0.986-0.332,1.331c-0.222,0.345-0.53,0.622-0.926,0.832c0.361,0.147,0.634,0.342,0.817,0.581
	c0.184,0.24,0.286,0.631,0.308,1.171v1.241c0.014,0.312,0.045,0.545,0.095,0.697c0.082,0.26,0.227,0.428,0.437,0.502v0.267h-1.515
	c-0.054-0.077-0.097-0.178-0.129-0.3c-0.031-0.124-0.062-0.361-0.09-0.713v-1.504c-0.029-0.588-0.242-0.982-0.639-1.183
	c-0.227-0.111-0.582-0.167-1.065-0.167h-2.702v3.866h-1.202V333.893 M248.247,338.027c0.554,0,0.992-0.114,1.316-0.342
	c0.324-0.229,0.486-0.641,0.486-1.235c0-0.639-0.227-1.074-0.679-1.307c-0.241-0.123-0.564-0.185-0.97-0.185h-2.891v3.068H248.247"
	/>
<polyline fill="#010101" points="259.662,333.893 259.662,334.959 256.591,334.959 256.591,342.96 255.389,342.96 255.389,334.959 
	252.317,334.959 252.317,333.893 259.662,333.893 "/>
<path fill="#010101" d="M267.807,333.893L267.807,333.893 M267.989,333.626c1.136,0,2.018,0.3,2.646,0.898
	c0.627,0.598,0.976,1.276,1.044,2.036h-1.202c-0.135-0.573-0.405-1.028-0.808-1.363c-0.403-0.336-0.968-0.504-1.695-0.504
	c-0.889,0-1.606,0.316-2.152,0.95c-0.545,0.633-0.817,1.603-0.817,2.91c0,1.071,0.248,1.94,0.744,2.606
	c0.498,0.666,1.239,0.999,2.226,0.999c0.909,0,1.6-0.354,2.074-1.062c0.252-0.372,0.441-0.862,0.564-1.472h1.2
	c-0.106,0.964-0.459,1.771-1.058,2.423c-0.717,0.785-1.685,1.178-2.901,1.178c-1.048,0-1.93-0.321-2.644-0.962
	c-0.938-0.848-1.408-2.157-1.408-3.929c0-1.344,0.35-2.446,1.05-3.307C265.611,334.094,266.656,333.626,267.989,333.626"/>
<polyline fill="#010101" points="273.548,334.025 274.75,334.025 274.75,342.96 273.548,342.96 273.548,334.025 "/>
<path fill="#010101" d="M276.888,333.893h4.056c0.668,0,1.219,0.101,1.652,0.302c0.824,0.387,1.235,1.101,1.235,2.144
	c0,0.542-0.11,0.986-0.332,1.331c-0.221,0.345-0.53,0.622-0.926,0.832c0.361,0.147,0.634,0.342,0.818,0.581
	c0.184,0.24,0.286,0.631,0.307,1.171v1.241c0.014,0.312,0.046,0.545,0.096,0.697c0.082,0.26,0.227,0.428,0.437,0.502v0.267h-1.515
	c-0.054-0.077-0.097-0.178-0.129-0.3c-0.031-0.124-0.061-0.361-0.09-0.713v-1.504c-0.029-0.588-0.242-0.982-0.639-1.183
	c-0.227-0.111-0.582-0.167-1.065-0.167h-2.702v3.866h-1.202V333.893 M280.827,338.027c0.554,0,0.993-0.114,1.316-0.342
	c0.324-0.229,0.486-0.641,0.486-1.235c0-0.639-0.227-1.074-0.679-1.307c-0.242-0.123-0.564-0.185-0.97-0.185h-2.891v3.068H280.827"
	/>
<path fill="#010101" d="M289.17,333.893L289.17,333.893 M289.353,333.626c1.136,0,2.018,0.3,2.646,0.898
	c0.627,0.598,0.976,1.276,1.044,2.036h-1.202c-0.135-0.573-0.405-1.028-0.808-1.363c-0.403-0.336-0.968-0.504-1.695-0.504
	c-0.889,0-1.606,0.316-2.152,0.95c-0.545,0.633-0.817,1.603-0.817,2.91c0,1.071,0.248,1.94,0.744,2.606
	c0.498,0.666,1.239,0.999,2.226,0.999c0.909,0,1.6-0.354,2.074-1.062c0.252-0.372,0.441-0.862,0.564-1.472h1.2
	c-0.106,0.964-0.459,1.771-1.058,2.423c-0.718,0.785-1.685,1.178-2.901,1.178c-1.048,0-1.93-0.321-2.644-0.962
	c-0.939-0.848-1.408-2.157-1.408-3.929c0-1.344,0.35-2.446,1.05-3.307C286.975,334.094,288.02,333.626,289.353,333.626"/>
<path fill="#010101" d="M298.382,333.626L298.382,333.626 M295.98,333.893v5.629c0,0.66,0.124,1.209,0.372,1.646
	c0.369,0.661,0.989,0.991,1.862,0.991c1.047,0,1.759-0.357,2.136-1.072c0.202-0.388,0.304-0.909,0.304-1.565v-5.629h1.202V339
	c0,1.117-0.149,1.978-0.446,2.58c-0.546,1.098-1.578,1.646-3.094,1.646c-1.518,0-2.547-0.549-3.09-1.646
	c-0.297-0.603-0.446-1.463-0.446-2.58v-5.107H295.98"/>
<polyline fill="#010101" points="303.993,334.025 305.194,334.025 305.194,342.96 303.993,342.96 303.993,334.025 "/>
<polyline fill="#010101" points="313.741,333.893 313.741,334.959 310.669,334.959 310.669,342.96 309.467,342.96 309.467,334.959 
	306.396,334.959 306.396,333.893 313.741,333.893 "/>
<path fill="#010101" d="M321.886,333.893L321.886,333.893 M322.067,333.626c1.136,0,2.018,0.3,2.646,0.898
	c0.628,0.598,0.976,1.276,1.044,2.036h-1.202c-0.135-0.573-0.404-1.028-0.808-1.363c-0.402-0.336-0.968-0.504-1.695-0.504
	c-0.889,0-1.606,0.316-2.153,0.95c-0.545,0.633-0.817,1.603-0.817,2.91c0,1.071,0.248,1.94,0.745,2.606
	c0.497,0.666,1.239,0.999,2.226,0.999c0.909,0,1.6-0.354,2.073-1.062c0.253-0.372,0.441-0.862,0.564-1.472h1.2
	c-0.106,0.964-0.458,1.771-1.058,2.423c-0.717,0.785-1.684,1.178-2.9,1.178c-1.049,0-1.93-0.321-2.644-0.962
	c-0.938-0.848-1.408-2.157-1.408-3.929c0-1.344,0.35-2.446,1.05-3.307C319.689,334.094,320.735,333.626,322.067,333.626"/>
<path fill="#010101" d="M331.098,333.626L331.098,333.626 M328.696,333.893v5.629c0,0.66,0.124,1.209,0.371,1.646
	c0.369,0.661,0.989,0.991,1.862,0.991c1.047,0,1.759-0.357,2.136-1.072c0.203-0.388,0.304-0.909,0.304-1.565v-5.629h1.202V339
	c0,1.117-0.148,1.978-0.446,2.58c-0.546,1.098-1.577,1.646-3.094,1.646c-1.517,0-2.547-0.549-3.09-1.646
	c-0.297-0.603-0.446-1.463-0.446-2.58v-5.107H328.696"/>
<path fill="#010101" d="M336.574,333.893h4.056c0.669,0,1.22,0.101,1.652,0.302c0.824,0.387,1.236,1.101,1.236,2.144
	c0,0.542-0.111,0.986-0.332,1.331s-0.53,0.622-0.926,0.832c0.361,0.147,0.634,0.342,0.818,0.581c0.184,0.24,0.286,0.631,0.307,1.171
	v1.241c0.014,0.312,0.046,0.545,0.096,0.697c0.081,0.26,0.227,0.428,0.437,0.502v0.267h-1.515c-0.054-0.077-0.097-0.178-0.129-0.3
	c-0.031-0.124-0.061-0.361-0.09-0.713v-1.504c-0.029-0.588-0.242-0.982-0.64-1.183c-0.226-0.111-0.581-0.167-1.065-0.167h-2.702
	v3.866h-1.202V333.893 M340.514,338.027c0.554,0,0.993-0.114,1.316-0.342c0.324-0.229,0.485-0.641,0.485-1.235
	c0-0.639-0.226-1.074-0.679-1.307c-0.241-0.123-0.564-0.185-0.969-0.185h-2.891v3.068H340.514"/>
<path fill="#010101" d="M345.52,333.893h4.056c0.669,0,1.219,0.101,1.652,0.302c0.824,0.387,1.235,1.101,1.235,2.144
	c0,0.542-0.11,0.986-0.332,1.331s-0.53,0.622-0.926,0.832c0.361,0.147,0.634,0.342,0.817,0.581c0.184,0.24,0.286,0.631,0.308,1.171
	v1.241c0.014,0.312,0.045,0.545,0.096,0.697c0.081,0.26,0.227,0.428,0.437,0.502v0.267h-1.515c-0.054-0.077-0.097-0.178-0.129-0.3
	c-0.031-0.124-0.062-0.361-0.09-0.713v-1.504c-0.028-0.588-0.242-0.982-0.639-1.183c-0.226-0.111-0.581-0.167-1.065-0.167h-2.702
	v3.866h-1.202V333.893 M349.459,338.027c0.554,0,0.993-0.114,1.316-0.342c0.324-0.229,0.486-0.641,0.486-1.235
	c0-0.639-0.226-1.074-0.679-1.307c-0.241-0.123-0.564-0.185-0.969-0.185h-2.892v3.068H349.459"/>
<path fill="#010101" d="M357.803,333.893L357.803,333.893 M354.466,333.893h6.542v1.066h-5.34v2.802h4.94v1.066h-4.94v3.066h5.473
	v1.066h-6.675V333.893"/>
<path fill="#010101" d="M366.214,333.626L366.214,333.626 M362.742,333.893h1.35l4.659,7.459v-7.459h1.069v9.067h-1.28l-4.729-7.569
	v7.569h-1.069V333.893"/>
<polyline fill="#010101" points="378.231,333.893 378.231,334.959 375.16,334.959 375.16,342.96 373.958,342.96 373.958,334.959 
	370.887,334.959 370.887,333.893 378.231,333.893 "/>
<polyline fill="none" stroke="#010101" stroke-width="0.72" stroke-linecap="round" stroke-linejoin="round" stroke-miterlimit="10" points="
	469.96,242.16 571.24,242.16 571.24,276.84 469.96,276.84 469.96,242.16 "/>
<polyline fill="none" stroke="#010101" stroke-width="0.72" stroke-linecap="round" stroke-linejoin="round" stroke-miterlimit="10" points="
	469.96,279.96 571.24,279.96 571.24,314.641 469.96,314.641 469.96,279.96 "/>
<polyline fill="none" stroke="#010101" stroke-width="0.72" stroke-linecap="round" stroke-linejoin="round" stroke-miterlimit="10" points="
	469.96,317.88 571.24,317.88 571.24,352.561 469.96,352.561 469.96,317.88 "/>
<polyline fill="none" stroke="#010101" stroke-width="0.72" stroke-linecap="round" stroke-linejoin="round" stroke-miterlimit="10" points="
	469.96,355.68 571.24,355.68 571.24,390.36 469.96,390.36 469.96,355.68 "/>
<path fill="#010101" d="M211.075,410.753c0-0.651-0.247-1.094-0.739-1.326c-0.27-0.125-0.641-0.188-1.112-0.188h-2.43v3.067h2.43
	c0.548,0,0.994-0.114,1.336-0.343C210.904,411.733,211.075,411.33,211.075,410.753 M205.591,408.173h4.044
	c0.8,0,1.441,0.226,1.922,0.679c0.481,0.451,0.722,1.085,0.722,1.902c0,0.703-0.214,1.315-0.643,1.838
	c-0.428,0.521-1.095,0.782-2.002,0.782h-2.839v3.866h-1.204V408.173"/>
<path fill="#010101" d="M217.362,408.173L217.362,408.173 M214.019,408.173h6.555v1.066h-5.351v2.802h4.95v1.066h-4.95v3.065h5.484
	v1.067h-6.688V408.173"/>
<path fill="#010101" d="M222.447,408.173h4.063c0.67,0,1.222,0.101,1.656,0.302c0.825,0.386,1.238,1.101,1.238,2.143
	c0,0.543-0.111,0.986-0.334,1.332c-0.221,0.345-0.531,0.622-0.928,0.832c0.363,0.147,0.636,0.341,0.819,0.581
	c0.185,0.24,0.288,0.63,0.308,1.17v1.241c0.014,0.312,0.046,0.545,0.098,0.698c0.081,0.26,0.228,0.427,0.438,0.502v0.267h-1.521
	c-0.052-0.078-0.095-0.178-0.127-0.3c-0.031-0.124-0.062-0.361-0.092-0.713v-1.504c-0.027-0.589-0.241-0.983-0.64-1.183
	c-0.228-0.111-0.583-0.167-1.068-0.167h-2.706v3.866h-1.204V408.173 M226.392,412.307c0.556,0,0.996-0.113,1.32-0.341
	c0.324-0.229,0.485-0.641,0.485-1.235c0-0.639-0.226-1.075-0.679-1.308c-0.242-0.122-0.566-0.184-0.971-0.184h-2.897v3.067H226.392"
	/>
<path fill="#010101" d="M238.23,407.906L238.23,407.906 M234.752,408.173h1.354l4.667,7.458v-7.458h1.071v9.067h-1.284l-4.736-7.569
	v7.569h-1.071V408.173"/>
<path fill="#010101" d="M247.193,408.173L247.193,408.173 M243.85,408.173h6.555v1.066h-5.351v2.802h4.95v1.066h-4.95v3.065h5.484
	v1.067h-6.688V408.173"/>
<path fill="#010101" d="M255.621,408.173L255.621,408.173 M255.803,407.906c1.139,0,2.022,0.3,2.651,0.898
	c0.628,0.598,0.977,1.276,1.046,2.036h-1.204c-0.135-0.574-0.405-1.028-0.81-1.363c-0.404-0.336-0.97-0.505-1.699-0.505
	c-0.89,0-1.609,0.317-2.156,0.951c-0.546,0.633-0.819,1.603-0.819,2.91c0,1.071,0.249,1.939,0.746,2.606
	c0.499,0.666,1.242,0.999,2.229,0.999c0.91,0,1.603-0.354,2.08-1.062c0.251-0.372,0.439-0.863,0.564-1.472h1.204
	c-0.107,0.964-0.461,1.771-1.062,2.423c-0.719,0.784-1.688,1.177-2.906,1.177c-1.051,0-1.934-0.32-2.649-0.962
	c-0.94-0.847-1.41-2.156-1.41-3.928c0-1.344,0.351-2.446,1.054-3.308C253.421,408.374,254.468,407.906,255.803,407.906"/>
<path fill="#010101" d="M267.244,416.572c0.588,0,1.027-0.201,1.318-0.605c0.291-0.403,0.437-0.881,0.437-1.431
	c0-0.468-0.13-0.911-0.39-1.331c-0.26-0.421-0.733-0.632-1.419-0.632c-0.479,0-0.899,0.163-1.262,0.489
	c-0.361,0.325-0.542,0.816-0.542,1.474c0,0.575,0.164,1.059,0.491,1.449C266.206,416.377,266.662,416.572,267.244,416.572
	 M267.415,408.44c0.989,0,1.678,0.262,2.068,0.784c0.39,0.522,0.585,1.061,0.585,1.616H269c-0.069-0.373-0.178-0.665-0.326-0.876
	c-0.276-0.395-0.695-0.593-1.256-0.593c-0.642,0-1.151,0.283-1.53,0.85c-0.377,0.565-0.588,1.375-0.632,2.429
	c0.256-0.35,0.58-0.609,0.97-0.78c0.357-0.153,0.755-0.23,1.194-0.23c0.745,0,1.395,0.236,1.95,0.708
	c0.556,0.472,0.834,1.175,0.834,2.109c0,0.801-0.26,1.509-0.78,2.125c-0.519,0.616-1.258,0.924-2.218,0.924
	c-0.821,0-1.531-0.312-2.128-0.938c-0.596-0.625-0.894-1.677-0.894-3.155c0-1.095,0.134-2.023,0.401-2.786
	C265.101,409.169,266.045,408.44,267.415,408.44"/>
<path fill="#010101" d="M273.951,413.374c0.437,0,0.834-0.149,1.194-0.448c0.361-0.299,0.542-0.82,0.542-1.565
	c0-0.669-0.162-1.167-0.486-1.495s-0.737-0.493-1.239-0.493c-0.538,0-0.964,0.188-1.281,0.562c-0.315,0.374-0.472,0.874-0.472,1.5
	c0,0.595,0.139,1.066,0.416,1.416C272.903,413.199,273.345,413.374,273.951,413.374 M272.209,415.106
	c0.034,0.617,0.272,1.045,0.714,1.282c0.228,0.123,0.484,0.184,0.771,0.184c0.535,0,0.991-0.216,1.367-0.648
	c0.378-0.434,0.645-1.313,0.803-2.64c-0.248,0.376-0.554,0.641-0.919,0.795c-0.364,0.152-0.755,0.229-1.173,0.229
	c-0.852,0-1.525-0.265-2.021-0.795s-0.744-1.213-0.744-2.048c0-0.8,0.24-1.504,0.722-2.111c0.482-0.608,1.194-0.913,2.136-0.913
	c1.269,0,2.144,0.578,2.627,1.734c0.267,0.635,0.401,1.431,0.401,2.385c0,1.08-0.159,2.036-0.478,2.867
	c-0.529,1.387-1.423,2.079-2.683,2.079c-0.848,0-1.491-0.228-1.931-0.684c-0.44-0.457-0.66-1.028-0.66-1.716H272.209"/>
<path fill="#010101" d="M280.932,416.572c0.563,0,1.011-0.26,1.345-0.779c0.333-0.521,0.5-1.488,0.5-2.905
	c0-1.022-0.121-1.863-0.362-2.523c-0.24-0.661-0.708-0.992-1.404-0.992c-0.639,0-1.106,0.314-1.403,0.941
	c-0.295,0.627-0.442,1.55-0.442,2.77c0,0.919,0.095,1.656,0.285,2.213C279.738,416.146,280.232,416.572,280.932,416.572
	 M280.947,408.44c1.13,0,1.946,0.471,2.449,1.412c0.39,0.727,0.585,1.722,0.585,2.987c0,1.199-0.177,2.192-0.53,2.977
	c-0.512,1.127-1.348,1.689-2.509,1.689c-1.049,0-1.829-0.46-2.34-1.38c-0.426-0.769-0.639-1.8-0.639-3.094
	c0-1.003,0.128-1.864,0.384-2.583C278.826,409.11,279.693,408.44,280.947,408.44"/>
<polyline fill="#010101" points="285.587,416.04 286.791,416.04 286.791,417.24 285.587,417.24 285.587,416.04 "/>
<polyline fill="#010101" points="288.933,416.04 290.136,416.04 290.136,417.24 288.933,417.24 288.933,416.04 "/>
<path fill="#010101" d="M292.812,415.106c0.071,0.62,0.355,1.049,0.853,1.286c0.255,0.12,0.549,0.18,0.883,0.18
	c0.637,0,1.109-0.211,1.416-0.634c0.306-0.424,0.459-0.894,0.459-1.409c0-0.623-0.183-1.104-0.548-1.444
	c-0.364-0.341-0.8-0.512-1.309-0.512c-0.37,0-0.688,0.075-0.953,0.227c-0.265,0.151-0.491,0.343-0.677,0.574h-0.964l0.692-4.8h4.427
	v1.066h-3.63l-0.364,2.519c0.2-0.146,0.391-0.257,0.572-0.33c0.323-0.127,0.695-0.189,1.118-0.189c0.792,0,1.462,0.259,2.012,0.776
	c0.551,0.516,0.827,1.17,0.827,1.961c0,0.826-0.256,1.555-0.767,2.185c-0.51,0.63-1.324,0.944-2.443,0.944
	c-0.714,0-1.345-0.196-1.892-0.588c-0.546-0.395-0.852-0.998-0.917-1.812H292.812"/>
<path fill="#010101" d="M301.335,417.506c-1.019,0-1.757-0.284-2.216-0.853c-0.459-0.57-0.688-1.264-0.688-2.079h1.069
	c0.049,0.588,0.154,1.016,0.317,1.282c0.281,0.478,0.791,0.716,1.53,0.716c0.573,0,1.032-0.156,1.378-0.471
	c0.347-0.313,0.521-0.718,0.521-1.213c0-0.611-0.184-1.039-0.553-1.282c-0.369-0.244-0.881-0.366-1.537-0.366
	c-0.073,0-0.146,0-0.221,0c-0.075,0-0.151,0-0.229,0v-0.934c0.107,0,0.198,0,0.272,0c0.075,0,0.155,0,0.24,0
	c0.392,0,0.713-0.068,0.966-0.206c0.441-0.24,0.662-0.67,0.662-1.29c0-0.46-0.149-0.814-0.448-1.063
	c-0.297-0.25-0.645-0.375-1.042-0.375c-0.707,0-1.195,0.261-1.466,0.78c-0.15,0.286-0.234,0.693-0.253,1.221h-1.07
	c0-0.662,0.128-1.226,0.386-1.689c0.442-0.828,1.219-1.243,2.331-1.243c0.881,0,1.562,0.203,2.044,0.607
	c0.482,0.405,0.724,0.993,0.724,1.763c0,0.549-0.152,0.993-0.456,1.333c-0.188,0.213-0.431,0.38-0.731,0.501
	c0.499,0.126,0.888,0.368,1.168,0.728c0.28,0.358,0.42,0.798,0.42,1.318c0,0.829-0.271,1.507-0.812,2.03
	C303.097,417.244,302.33,417.506,301.335,417.506"/>
</svg>
