<?xml version="1.0" encoding="utf-8"?>
<!-- Generator: Adobe Illustrator 21.1.0, SVG Export Plug-In . SVG Version: 6.00 Build 0)  -->
<svg version="1.1" id="Layer_1" xmlns="http://www.w3.org/2000/svg" xmlns:xlink="http://www.w3.org/1999/xlink" x="0px" y="0px"
	 viewBox="0 0 216 216" style="enable-background:new 0 0 216 216;" xml:space="preserve">
<g>
	<g>
		<g>
			<polygon style="fill:#FFFFFF;" points="171.2,66.3 160.4,55.5 148.6,57 159.2,68.2 			"/>
			<polygon style="fill:#FFFFFF;" points="190.9,85.8 175.6,70.6 163.4,72.6 178.4,88.5 			"/>
			<polygon style="fill:#FFFFFF;" points="188.4,63.5 177.7,53.4 166.5,54.8 177.1,65.3 			"/>
			<polygon style="fill:#FFFFFF;" points="139.4,71.5 153.3,69.2 142.5,57.7 128.8,59.4 			"/>
			<polygon style="fill:#FFFFFF;" points="143.9,39.3 132.7,40.2 144.5,52.6 156,51.2 			"/>
			<polygon style="fill:#FFFFFF;" points="138.4,53.3 126.5,40.7 113.3,41.8 124.9,55 			"/>
			<polygon style="fill:#FFFFFF;" points="157.5,73.6 143.3,75.9 158.3,92.9 172.7,89.8 			"/>
			<polygon style="fill:#FFFFFF;" points="162.1,50.5 173.1,49.2 161.1,37.8 150.2,38.7 			"/>
			<polygon style="fill:#FFFFFF;" points="192.9,67.7 181.5,69.6 196.6,84.5 208.2,82 			"/>
		</g>
		<polygon style="fill:#FFFFFF;" points="158.3,99.3 154.9,96.1 153.5,108.8 165.3,115.1 165.7,97.5 		"/>
	</g>
	<g>
		<g>
			<path style="fill:#FFFFFF;" d="M212.3,153.2L109.1,93c-1-0.6-2.1-0.9-3.2-0.9c-1.6-0.2-3.4,0.1-5,1.2L3.3,161.9
				c-3.3,2.2-4.1,6.7-1.8,10c2.2,3.2,6.7,4,9.9,1.7l94.3-66l99.5,58c3.4,2,7.8,0.8,9.7-2.6C216.9,159.6,215.7,155.2,212.3,153.2z"/>
		</g>
		<polygon style="fill:#FFFFFF;" points="188.4,178.2 188.4,176.7 106.1,125.3 30.4,178.2 		"/>
	</g>
</g>
</svg>
