<?xml version="1.0" encoding="utf-8"?>
<!-- Generator: Adobe Illustrator 21.1.0, SVG Export Plug-In . SVG Version: 6.00 Build 0)  -->
<svg version="1.1" id="Layer_1" xmlns="http://www.w3.org/2000/svg" xmlns:xlink="http://www.w3.org/1999/xlink" x="0px" y="0px"
	 viewBox="0 0 216 216" style="enable-background:new 0 0 216 216;" xml:space="preserve">
<g>
	<path style="fill:#612A60;" d="M16,203.4c-3.9,0-7-3.1-7-7v-6.1c0-3.9,3.1-7,7-7h9.5v10h26.1h15.1h27.4h18.8H141h16.9h29.1v-10H200
		c3.9,0,7,3.1,7,7v6.1c0,3.9-3.1,7-7,7H16z"/>
	<rect x="141" y="183.3" style="fill:#612A60;" width="16.9" height="10"/>
	<rect x="94.1" y="183.3" style="fill:#612A60;" width="18.8" height="10"/>
	<rect x="51.6" y="183.3" style="fill:#612A60;" width="15.1" height="10"/>
	<path style="fill:#612A60;" d="M157.9,107.9v75.4h29.1V88.8c0-1.9-0.3-3.5-0.8-4.7C185.8,84.7,174.8,95.1,157.9,107.9z"/>
	<path style="fill:#612A60;" d="M112.9,137.2v46.1H141v-63.2C132.3,126,122.8,131.9,112.9,137.2z"/>
	<path style="fill:#612A60;" d="M66.7,154.7v28.6h27.4v-37.2C85,149.9,75.8,152.9,66.7,154.7z"/>
	<path style="fill:#612A60;" d="M27.7,154.1c-2.2,2.4-2.3,6.1-2.3,6.1v23.1h26.1v-23.1c0-1.4-0.3-2.5-0.6-3.5
		C43,157,35.2,156.3,27.7,154.1z"/>
	<path style="fill:#612A60;" d="M207.1,14c-8.5-4.9-42.7,4.4-58.4,12.8c-15.7,8.4,3.1,13.2,3.1,13.2l17.6,7
		c-12.2,15.2-61.2,51.3-98.8,60.1c-34,8.9-58-1.8-64.5-18.7c-0.6-1.6-1.4-3.5-2.2-5.8c-7.1,20.4-5.3,39,13.6,51.3
		c66.7,43.5,174.2-68.9,174.2-68.9s10.9,6.9,19.4,8.5C219.6,75,215.6,18.9,207.1,14z"/>
</g>
</svg>
