<?xml version="1.0" encoding="utf-8"?>
<!-- Generator: Adobe Illustrator 21.1.0, SVG Export Plug-In . SVG Version: 6.00 Build 0)  -->
<svg version="1.1" id="Layer_1" xmlns="http://www.w3.org/2000/svg" xmlns:xlink="http://www.w3.org/1999/xlink" x="0px" y="0px"
	 viewBox="0 0 216 216" style="enable-background:new 0 0 216 216;" xml:space="preserve">
<path style="fill:#612A60;" d="M175.4,18.7L33.2,31.1c-18.3,0-33,14.8-33,33.1v55.1c0,18.2,14.7,33,33,33l100.7,5.6l-8.5,39.4
	l41.9-37.6l8.2,0.4c18.3,0,40.4-9.7,40.4-28V52.7C215.8,34.4,193.7,18.7,175.4,18.7z M116.7,128.6c-0.9,1.5-2.2,2.7-3.8,3.6
	c-1.6,0.9-3.4,1.3-5.5,1.3c-2,0-3.9-0.4-5.5-1.3c-1.6-0.9-2.9-2.1-3.8-3.6c-0.9-1.5-1.4-3.2-1.4-5.1c0-1.9,0.5-3.6,1.4-5.1
	c0.9-1.5,2.2-2.7,3.8-3.6c1.6-0.9,3.5-1.3,5.5-1.3c2,0,3.9,0.4,5.5,1.3c1.6,0.9,2.9,2.1,3.8,3.6c0.9,1.5,1.3,3.2,1.3,5.1
	C118,125.4,117.6,127.1,116.7,128.6z M132.6,81.9c-0.9,2-2,3.7-3.4,5.3c-1.4,1.5-3.4,3.5-6,5.8l-2.1,1.9c-2.1,1.8-3.5,3.6-4.3,5.4
	c-0.8,1.8-1.2,4.1-1.3,7.1H99.2c0-4.8,0.5-8.8,1.6-12.1c1.1-3.3,3-5.9,5.7-8c2.7-2,4.6-4,6-5.8c1.3-1.8,2-3.6,2-5.5
	c0-2.5-0.5-4.3-1.6-5.4c-1-1.1-2.6-1.7-4.8-1.7c-1.9,0-3.4,0.7-4.6,2.1c-1.2,1.4-1.9,3.5-2,6.3H82.1c0.1-8.2,2.5-14.2,7.2-18
	c4.7-3.8,11-5.8,18.8-5.8c8.1,0,14.4,1.8,19,5.5c4.5,3.7,6.8,9,6.8,16C133.9,77.6,133.4,79.9,132.6,81.9z"/>
</svg>
