<?xml version="1.0" encoding="utf-8"?>
<!-- Generator: Adobe Illustrator 21.1.0, SVG Export Plug-In . SVG Version: 6.00 Build 0)  -->
<svg version="1.1" id="Layer_1" xmlns="http://www.w3.org/2000/svg" xmlns:xlink="http://www.w3.org/1999/xlink" x="0px" y="0px"
	 viewBox="0 0 216 216" style="enable-background:new 0 0 216 216;" xml:space="preserve">
<g>
	<path style="fill:#612A60;" d="M132.1,117.9c0.6,0,1-0.2,1-0.3l-1.7-28.5c0,0.1-0.4-0.1-0.9-0.1h-45c-0.6,0-0.9,0.3-1,0.4L83,117.9
		c0.1-0.1,0.4,0,0.9,0H132.1z"/>
	<path style="fill:#612A60;" d="M71.3,89h-45c-0.7,0-1.3,0.4-1.4,0.6l-4.8,28.2c0.1,0,0.3,0,0.4,0h48.2c0.8,0,1.3-0.3,1.3-0.5
		L71.8,89C71.7,89.1,71.5,89,71.3,89z"/>
	<path style="fill:#612A60;" d="M130.3,77c0.4,0,0.6-0.1,0.7-0.2l-1.6-28.6c0,0.1-0.2-0.1-0.6-0.1H87.3c-0.4,0-0.6,0.2-0.6,0.3
		L85.2,77c0.1-0.1,0.3,0,0.5,0H130.3z"/>
	<path style="fill:#612A60;" d="M71.7,77c0.6,0,0.9-0.3,1-0.4l1.8-28.8l-0.2,0.3H32.9c-0.5,0-1,0.4-1,0.5L27,76.9L71.7,77z"/>
	<g>
		<path style="fill:#612A60;" d="M215.5,120.2c-5-24.8-9.9-49.6-14.9-74.5c-1.3-6.5-8.3-12.8-16.9-12.9H32.3
			c-8.6,0.1-15.6,6.3-16.9,12.9c-5,24.8-9.9,49.6-14.9,74.5c-1.5,7.4,6.2,23.1,15,23.1h80.9c-2.6,10.2-4.7,22.3-4.8,35.3
			c-0.1,0.2-0.2,0.4-0.2,0.6c0,2.1,7.4,3.9,16.6,3.9c9.2,0,16.6-1.7,16.6-3.9c0-0.2-0.1-0.4-0.2-0.6c-0.1-13-2.2-25.1-4.8-35.3h80.9
			C209.2,143.3,217,127.6,215.5,120.2z M199.3,126.3H16.7c-4.1,0-7.6-2.6-7-6c4.5-24.8,9.1-49.6,13.6-74.5c0.7-3.2,3.8-5.9,7.9-6
			h153.7c4.1,0.1,7.3,2.9,7.9,6c4.5,24.8,9.1,49.6,13.6,74.5C207,123.7,203.5,126.3,199.3,126.3z"/>
	</g>
	<path style="fill:#612A60;" d="M183.1,48.2h-41.4l1.7,28.7c0,0,0,0,0,0c0.1,0,0.4,0.2,0.9,0.2h44.6c0,0,0.1,0,0.1,0l-4.8-28.4
		C184.1,48.5,183.7,48.2,183.1,48.2z"/>
	<path style="fill:#612A60;" d="M195.5,117.9c0.2,0,0.3,0,0.4,0l-4.8-28.3c-0.1-0.2-0.7-0.6-1.4-0.6h-45c-0.4,0-0.6,0.1-0.7,0.2
		l2,28.5c0,0,0,0,0.1,0c0.2,0,0.6,0.2,1.2,0.2H195.5z"/>
</g>
</svg>
