<?xml version="1.0" encoding="utf-8"?>
<!-- Generator: Adobe Illustrator 21.1.0, SVG Export Plug-In . SVG Version: 6.00 Build 0)  -->
<svg version="1.1" id="Layer_1" xmlns="http://www.w3.org/2000/svg" xmlns:xlink="http://www.w3.org/1999/xlink" x="0px" y="0px"
	 viewBox="0 0 216 216" style="enable-background:new 0 0 216 216;" xml:space="preserve">
<g>
	<path style="fill:#612A60;" d="M109.7,167.5h-80c-2.3,0-4.2-1.9-4.2-4.2c0-2.3,1.9-4.3,4.2-4.3h69.8c-4.7-4.9-8.5-10.6-11.1-17
		H29.7c-2.3,0-4.2-1.9-4.2-4.2c0-2.3,1.9-4.3,4.2-4.3h56c-1-4.2-1.6-8.5-1.6-13c0-1.3,0.1-2.7,0.2-4H29.7c-2.3,0-4.2-1.9-4.2-4.3
		c0-2.3,1.9-4.2,4.2-4.2h55.8c1.9-8.2,5.5-15.7,10.6-22.2c-8.9-2.5-15.4-10.6-15.4-20.3v-51H17c-9.4,0-17,7.6-17,17v153
		c0,9.4,7.6,17,17,17h119c9.4,0,17-7.6,17-17V175c-4.1,1-8.4,1.5-12.8,1.5C128.9,176.5,118.5,173.2,109.7,167.5z"/>
	<path style="fill:#612A60;" d="M102,78.3h1.4c7.9-6.9,17.8-11.6,28.6-13.2L89.2,22.3v43.2C89.2,72.5,94.9,78.2,102,78.3z"/>
	<g>
		<path style="fill:#612A60;" d="M156.7,144.9c-1,1.4-2.5,2.3-4.2,2.6c-0.4,0.1-0.7,0.1-1.1,0.1c-1.3,0-2.6-0.4-3.8-1.2l-38.3-27.5
			c-1.4-1-2.3-2.5-2.6-4.2c-0.3-1.7,0.1-3.4,1.1-4.8l4.5-6.2c1-1.4,2.5-2.3,4.2-2.6c1.7-0.3,3.4,0.1,4.8,1.1l26.8,19.2l24.7-34.4
			c-8.3-8.1-19.7-13.2-32.2-13.3c-0.2,0-0.3,0-0.5,0c-7.2,0-13.9,1.7-20,4.5c-4.6,2.2-8.7,5-12.3,8.5c-6,5.7-10.4,13-12.7,21.2
			c-0.8,2.7-1.3,5.6-1.5,8.5c-0.1,1.3-0.2,2.6-0.2,4c0,4.5,0.7,8.9,1.9,13c0.9,3,2,5.8,3.4,8.5c3.6,6.8,8.7,12.7,15,17
			c4,2.7,8.4,4.9,13.1,6.3c4.2,1.3,8.7,2,13.3,2c4.4,0,8.7-0.7,12.8-1.8c19.6-5.6,34-23.5,34-44.9c0-5.1-0.8-9.9-2.3-14.5
			L156.7,144.9z"/>
	</g>
	<path style="fill:#612A60;" d="M215.6,59.6c-0.3-1.7-1.2-3.2-2.6-4.2l-6.2-4.5c-2.9-2.1-6.9-1.4-9,1.5l-49.5,69l-26.8-19.2
		c-1.4-1-3.1-1.4-4.8-1.1c-1.7,0.3-3.2,1.2-4.2,2.6l-4.5,6.2c-1,1.4-1.4,3.1-1.1,4.8c0.3,1.7,1.2,3.2,2.6,4.2l38.3,27.5
		c1.1,0.8,2.4,1.2,3.8,1.2c0.4,0,0.7,0,1.1-0.1c1.7-0.3,3.2-1.2,4.2-2.6l57.8-80.5C215.5,63,215.9,61.3,215.6,59.6z M212.8,63.3
		l-57.8,80.5c-1.4,2-4.2,2.5-6.2,1l-38.3-27.5c-2-1.4-2.5-4.2-1-6.2l4.5-6.2c1.4-2,4.2-2.5,6.2-1l28.4,20.4l50.7-70.6
		c1.4-2,4.2-2.5,6.2-1l6.2,4.5C213.8,58.5,214.3,61.3,212.8,63.3z"/>
</g>
</svg>
