<?xml version="1.0" encoding="utf-8"?>
<!-- Generator: Adobe Illustrator 21.1.0, SVG Export Plug-In . SVG Version: 6.00 Build 0)  -->
<svg version="1.1" id="Layer_1" xmlns="http://www.w3.org/2000/svg" xmlns:xlink="http://www.w3.org/1999/xlink" x="0px" y="0px"
	 viewBox="0 0 216 216" style="enable-background:new 0 0 216 216;" xml:space="preserve">
<g>
	<rect y="15.9" style="fill:#612A60;" width="216" height="12.6"/>
	<rect x="42.1" y="8.3" style="fill:#612A60;" width="131.8" height="11.1"/>
	<path style="fill:#612A60;" d="M0,32.7v148.8h101.2v-17.3h13.3v17.3H216V32.7H0z M59.9,167.3H22.2v-22h37.7V167.3z M59.9,133.8
		H22.2v-22h37.7V133.8z M59.9,100.3H22.2v-22h37.7V100.3z M59.9,66.8H22.2v-22h37.7V66.8z M97.6,151l11.6-50.7H77.9L133.4,45
		l-19.7,39.4h24.3L97.6,151z M193.9,167.3h-37.7v-22h37.7V167.3z M193.9,133.8h-37.7v-22h37.7V133.8z M193.9,100.3h-37.7v-22h37.7
		V100.3z M193.9,66.8h-37.7v-22h37.7V66.8z"/>
	<rect y="185.2" style="fill:#612A60;" width="86.6" height="22.5"/>
	<rect x="129.4" y="185.2" style="fill:#612A60;" width="86.6" height="22.5"/>
</g>
</svg>
