<?xml version="1.0" encoding="utf-8"?>
<!-- Generator: Adobe Illustrator 21.1.0, SVG Export Plug-In . SVG Version: 6.00 Build 0)  -->
<svg version="1.1" id="Layer_1" xmlns="http://www.w3.org/2000/svg" xmlns:xlink="http://www.w3.org/1999/xlink" x="0px" y="0px"
	 viewBox="0 0 216 216" style="enable-background:new 0 0 216 216;" xml:space="preserve">
<path style="display:none;fill:#612A60;stroke:#FFFFFF;stroke-width:3;stroke-miterlimit:10;" d="M194.3,53.1
	c-1.3,0.3-2.9,0.7-4.5,1c-1.7,0.3-2.8,1.1-3.2,2.9c-0.3,1.3-0.8,2.5-1.4,3.7c-0.6,1.3-0.4,2.5,0.5,3.6c1,1.2,1.9,2.4,2.9,3.7
	c1,1.3,1,2.5-0.1,3.8c-1.5,1.7-3,3.3-4.5,4.9c-1.2,1.3-2.4,1.4-3.8,0.5c-1.4-0.9-2.8-1.7-4.2-2.6c-1.2-0.8-2.3-0.7-3.6,0
	c-1.2,0.7-2.5,1.2-3.8,1.8c-1.3,0.5-2,1.5-2.2,2.9c-0.2,1.5-0.3,3.1-0.5,4.6c-0.2,1.7-1.1,2.6-2.8,2.6c-2.1,0.1-4.3,0.2-6.4,0.3
	c-1.8,0.1-2.8-0.7-3.2-2.5c-0.3-1.4-0.6-2.7-0.9-4.1c-0.3-1.7-1.1-2.7-2.8-3.2c-1.1-0.3-2.2-0.7-3.2-1.2c-1.6-0.7-2.9-0.6-4.2,0.6
	c-1,0.9-2.2,1.8-3.3,2.6c-1.5,1.1-2.7,1.1-4.1-0.2c-1.6-1.4-3.1-2.8-4.7-4.2c-1.4-1.3-1.5-2.5-0.6-4c0.8-1.3,1.7-2.6,2.5-3.9
	c0.8-1.2,0.8-2.4,0-3.7c-0.6-1.1-1.2-2.3-1.7-3.6c-0.6-1.5-1.6-2.3-3.2-2.4c-1.5-0.1-2.9-0.3-4.4-0.5c-1.7-0.2-2.6-1.1-2.7-2.8
	c-0.1-2.2-0.2-4.3-0.3-6.5c-0.1-1.7,0.7-2.7,2.4-3.1c1.6-0.4,3.1-0.7,4.7-1.1c1.3-0.3,2.1-1,2.5-2.3c0.5-1.5,1-2.9,1.6-4.4
	c0.4-1.2,0.4-2.2-0.5-3.2c-1-1.2-2-2.5-3-3.8c-1.1-1.5-1.1-2.7,0.2-4.1c1.4-1.6,2.8-3.1,4.2-4.6c1.2-1.3,2.5-1.5,4-0.5
	c1.4,0.8,2.7,1.7,4,2.6c1.1,0.7,2.3,0.7,3.5,0.1c1.3-0.7,2.6-1.2,3.9-1.8c1.3-0.6,2-1.5,2.2-2.9c0.2-1.6,0.4-3.2,0.6-4.8
	c0.2-1.6,1.1-2.5,2.8-2.6c2.2-0.1,4.4-0.2,6.6-0.3c1.6-0.1,2.6,0.7,3,2.3c0.3,1.5,0.7,3,1,4.6c0.3,1.4,1.1,2.2,2.4,2.7
	c1.5,0.5,3,1,4.4,1.6c1.3,0.5,2.4,0.3,3.5-0.5c1.3-1,2.6-2,3.9-3c1.1-0.8,2.3-0.9,3.4,0c1.8,1.6,3.6,3.2,5.4,4.9
	c1,1,1.1,2.2,0.4,3.5c-0.9,1.4-1.7,2.8-2.6,4.2c-0.8,1.2-0.8,2.4-0.1,3.7c0.7,1.3,1.2,2.6,1.8,3.9c0.5,1.2,1.4,2,2.8,2.1
	c1.6,0.2,3.2,0.3,4.8,0.5c1.6,0.2,2.5,1.1,2.6,2.8c0.1,2.2,0.3,4.4,0.3,6.6C196.4,51.6,195.8,52.5,194.3,53.1z M172.6,42.3
	c-3.3-7.8-12.7-11.6-20.6-8.2c-7.9,3.4-11.7,12.7-8.3,20.7c3.4,7.9,12.7,11.6,20.6,8.3C172.3,59.6,176.1,50.3,172.6,42.3z"/>
<g>
	<rect x="34.6" y="11.8" style="fill:none;" width="146.7" height="14.1"/>
</g>
<g>
	<rect x="30.6" y="8.8" style="fill:#FFFFFF;" width="154.8" height="15"/>
</g>
<rect x="230.9" y="9.4" style="fill:#612A60;" width="166" height="166"/>
<path style="fill:#FFFFFF;" d="M36.8,33.5V212h142.4V33.5H36.8z M97.3,83.8c-0.5,4-1.7,7.5-3.5,10.5v0c-1.9,3.2-4.6,5.6-8,7.4
	c-3.5,1.8-7.5,2.6-12.2,2.6c-4.8,0-9-1.2-12.7-3.6c-3.6-2.4-6.5-5.8-8.5-10.1c-2-4.2-3-9.1-3-14.8V70c0-5.7,1-10.6,3-14.8
	c2.1-4.4,5.1-7.8,8.8-10.1c3.7-2.3,8.2-3.5,13.2-3.5c4.5,0,8.4,0.9,11.7,2.6c3.4,1.8,5.9,4.3,7.8,7.4c1.8,3,2.9,6.6,3.4,10.8
	l0.2,1.7H86.7l-0.2-1.3c-0.6-4.2-1.8-7.1-3.6-9c-1.8-1.9-4.7-2.8-8.5-2.8c-3.1,0-5.6,0.7-7.6,2.3c-2.2,1.6-3.8,3.8-4.8,6.5
	c-1.1,2.9-1.6,6.3-1.6,10.3v6c0,3.8,0.5,7.1,1.6,10.1c1,2.9,2.5,5.1,4.5,6.7c2,1.6,4.4,2.4,7.3,2.4c3,0,5.3-0.4,7.1-1.3
	c1.6-0.8,2.9-2.1,3.8-3.7c0.9-1.8,1.6-4,2-6.7l0.2-1.3h10.7L97.3,83.8z M115.6,209.5c-2.2,0-4-1.8-4-4s1.8-4,4-4s4,1.8,4,4
	S117.8,209.5,115.6,209.5z M127.1,209.5c-2.2,0-4-1.8-4-4s1.8-4,4-4s4,1.8,4,4S129.3,209.5,127.1,209.5z"/>
</svg>
