<?xml version="1.0" encoding="utf-8"?>
<!-- Generator: Adobe Illustrator 21.1.0, SVG Export Plug-In . SVG Version: 6.00 Build 0)  -->
<svg version="1.1" id="Layer_1" xmlns="http://www.w3.org/2000/svg" xmlns:xlink="http://www.w3.org/1999/xlink" x="0px" y="0px"
	 viewBox="0 0 216 216" style="enable-background:new 0 0 216 216;" xml:space="preserve">
<path style="display:none;fill:#612A60;stroke:#FFFFFF;stroke-width:3;stroke-miterlimit:10;" d="M194.3,53.1
	c-1.3,0.3-2.9,0.7-4.5,1c-1.7,0.3-2.8,1.1-3.2,2.9c-0.3,1.3-0.8,2.5-1.4,3.7c-0.6,1.3-0.4,2.5,0.5,3.6c1,1.2,1.9,2.4,2.9,3.7
	c1,1.3,1,2.5-0.1,3.8c-1.5,1.7-3,3.3-4.5,4.9c-1.2,1.3-2.4,1.4-3.8,0.5c-1.4-0.9-2.8-1.7-4.2-2.6c-1.2-0.8-2.3-0.7-3.6,0
	c-1.2,0.7-2.5,1.2-3.8,1.8c-1.3,0.5-2,1.5-2.2,2.9c-0.2,1.5-0.3,3.1-0.5,4.6c-0.2,1.7-1.1,2.6-2.8,2.6c-2.1,0.1-4.3,0.2-6.4,0.3
	c-1.8,0.1-2.8-0.7-3.2-2.5c-0.3-1.4-0.6-2.7-0.9-4.1c-0.3-1.7-1.1-2.7-2.8-3.2c-1.1-0.3-2.2-0.7-3.2-1.2c-1.6-0.7-2.9-0.6-4.2,0.6
	c-1,0.9-2.2,1.8-3.3,2.6c-1.5,1.1-2.7,1.1-4.1-0.2c-1.6-1.4-3.1-2.8-4.7-4.2c-1.4-1.3-1.5-2.5-0.6-4c0.8-1.3,1.7-2.6,2.5-3.9
	c0.8-1.2,0.8-2.4,0-3.7c-0.6-1.1-1.2-2.3-1.7-3.6c-0.6-1.5-1.6-2.3-3.2-2.4c-1.5-0.1-2.9-0.3-4.4-0.5c-1.7-0.2-2.6-1.1-2.7-2.8
	c-0.1-2.2-0.2-4.3-0.3-6.5c-0.1-1.7,0.7-2.7,2.4-3.1c1.6-0.4,3.1-0.7,4.7-1.1c1.3-0.3,2.1-1,2.5-2.3c0.5-1.5,1-2.9,1.6-4.4
	c0.4-1.2,0.4-2.2-0.5-3.2c-1-1.2-2-2.5-3-3.8c-1.1-1.5-1.1-2.7,0.2-4.1c1.4-1.6,2.8-3.1,4.2-4.6c1.2-1.3,2.5-1.5,4-0.5
	c1.4,0.8,2.7,1.7,4,2.6c1.1,0.7,2.3,0.7,3.5,0.1c1.3-0.7,2.6-1.2,3.9-1.8c1.3-0.6,2-1.5,2.2-2.9c0.2-1.6,0.4-3.2,0.6-4.8
	c0.2-1.6,1.1-2.5,2.8-2.6c2.2-0.1,4.4-0.2,6.6-0.3c1.6-0.1,2.6,0.7,3,2.3c0.3,1.5,0.7,3,1,4.6c0.3,1.4,1.1,2.2,2.4,2.7
	c1.5,0.5,3,1,4.4,1.6c1.3,0.5,2.4,0.3,3.5-0.5c1.3-1,2.6-2,3.9-3c1.1-0.8,2.3-0.9,3.4,0c1.8,1.6,3.6,3.2,5.4,4.9
	c1,1,1.1,2.2,0.4,3.5c-0.9,1.4-1.7,2.8-2.6,4.2c-0.8,1.2-0.8,2.4-0.1,3.7c0.7,1.3,1.2,2.6,1.8,3.9c0.5,1.2,1.4,2,2.8,2.1
	c1.6,0.2,3.2,0.3,4.8,0.5c1.6,0.2,2.5,1.1,2.6,2.8c0.1,2.2,0.3,4.4,0.3,6.6C196.4,51.6,195.8,52.5,194.3,53.1z M172.6,42.3
	c-3.3-7.8-12.7-11.6-20.6-8.2c-7.9,3.4-11.7,12.7-8.3,20.7c3.4,7.9,12.7,11.6,20.6,8.3C172.3,59.6,176.1,50.3,172.6,42.3z"/>
<rect x="337.7" y="5.9" style="fill:#612A60;" width="166" height="166"/>
<g>
	<g>
		<path style="fill:#FFFFFF;" d="M172.3,115.9H64.7c-2.3,0-4.2-1.9-4.2-4.2v-74c0-2.3,1.9-4.2,4.2-4.2h107.6c2.3,0,4.2,1.9,4.2,4.2
			v74C176.4,114,174.6,115.9,172.3,115.9z"/>
	</g>
	<g>
		<path style="fill:#FFFFFF;" d="M166.8,30V4.5c0-1.7-1.4-3-3-3h-50.4v7.8h1.3V8.6c0-2.1,1.7-3.9,3.9-3.9s3.9,1.7,3.9,3.9v14.5
			c0,2.1-1.7,3.9-3.9,3.9s-3.9-1.7-3.9-3.9v-6h-1.3v0h-4.6c-2.5,0-4.6-2-4.6-4.6V1.5H73.1c-1.7,0-3,1.4-3,3V30H166.8z"/>
	</g>
	<g>
		<rect x="70.6" y="114.4" style="fill:#FFFFFF;" width="17.3" height="17.3"/>
	</g>
	<g>
		<rect x="145.3" y="114.4" style="fill:#FFFFFF;" width="21.7" height="17.3"/>
	</g>
	<g>
		<g>
			<path style="fill:#FFFFFF;" d="M98.9,180.7l-17.2-1.2l0.9-13.7c0.1-1.8,1.7-3.1,3.5-3l10.7,0.7c1.8,0.1,3.1,1.7,3,3.5L98.9,180.7
				z"/>
		</g>
		<g>
			<rect x="83.8" y="178.4" style="fill:#FFFFFF;" width="12" height="3.5"/>
		</g>
		<g>
			
				<rect x="81.1" y="181.4" transform="matrix(0.9991 4.157623e-02 -4.157623e-02 0.9991 7.8475 -3.5622)" style="fill:#FFFFFF;" width="16.8" height="10.9"/>
		</g>
		<g>
			<path style="fill:#FFFFFF;" d="M94,203l-9.9-0.7c-0.9-0.1-1.6-0.9-1.5-1.8l0.8-10.8c0.1-0.9,0.9-1.6,1.8-1.5l9.9,0.7
				c0.9,0.1,1.6,0.9,1.5,1.8l-0.8,10.8C95.7,202.3,94.9,203,94,203z"/>
		</g>
		<g>
			
				<rect x="83.6" y="204" transform="matrix(3.711099e-02 -0.9993 0.9993 3.711099e-02 -120.1959 288.2598)" style="fill:#FFFFFF;" width="11.8" height="5"/>
		</g>
		<g>
			<path style="fill:#FFFFFF;" d="M79.2,180.4H64v-15.2c0-1.3,1.1-2.4,2.4-2.4h10.4c1.3,0,2.4,1.1,2.4,2.4V180.4z"/>
		</g>
		<g>
			<rect x="65.3" y="178.4" style="fill:#FFFFFF;" width="12.4" height="3.5"/>
		</g>
		<g>
			<path style="fill:#FFFFFF;" d="M66,181.2h11.5c1.4,0,2.6,1.2,2.6,2.6v19.8H63.3v-19.8C63.3,182.4,64.5,181.2,66,181.2z"/>
		</g>
		<g>
			<rect x="65.9" y="202.4" style="fill:#FFFFFF;" width="12.4" height="7"/>
		</g>
		<g>
			<rect x="63.1" y="208.2" style="fill:#FFFFFF;" width="17.2" height="6.8"/>
		</g>
	</g>
	<path style="fill:#FFFFFF;" d="M86.4,179.2h5.1c-0.2-2-0.4-4-0.6-6c-1.7-17.3-4.8-42.9-4.8-43.2l-5,0.6c0,0.3,3.1,25.9,4.8,43.1
		C86.1,175.5,86.2,177.3,86.4,179.2z"/>
	<path style="fill:#FFFFFF;" d="M71.6,173.8c3.8-15.2,7.9-47.3,8-48.7l-5-0.6c0,0.4-4.3,34.1-8.1,48.7L71.6,173.8z"/>
	<rect x="157.6" y="130.1" style="fill:#FFFFFF;" width="6.5" height="69.8"/>
	<rect x="148.1" y="130.1" style="fill:#FFFFFF;" width="6.5" height="69.8"/>
</g>
</svg>
