<?xml version="1.0" encoding="utf-8"?>
<!-- Generator: Adobe Illustrator 21.1.0, SVG Export Plug-In . SVG Version: 6.00 Build 0)  -->
<svg version="1.1" id="Layer_1" xmlns="http://www.w3.org/2000/svg" xmlns:xlink="http://www.w3.org/1999/xlink" x="0px" y="0px"
	 viewBox="0 0 360 360" style="enable-background:new 0 0 360 360;" xml:space="preserve">
<g>
	<g>
		<path style="fill:#FFFFFF;" d="M268.3,70H101.5c-9.3,0-16.8,7.5-16.8,16.8v202c0,9.3,7.5,16.8,16.8,16.8h166.8
			c9.3,0,16.8-7.5,16.8-16.8v-202C285.2,77.6,277.6,70,268.3,70z M257.3,276.5c0,3.4-2.7,6.1-6.1,6.1H110.4c-3.4,0-6.1-2.7-6.1-6.1
			v-182c0-3.4,2.7-6.1,6.1-6.1h140.8c3.4,0,6.1,2.7,6.1,6.1V276.5z"/>
	</g>
	<g>
		<path style="fill:#FFFFFF;" d="M44.4,6.5v347h271.2V6.5H44.4z M293.2,288.8c0,13.7-11.2,24.9-24.9,24.9H101.5
			c-13.7,0-24.9-11.2-24.9-24.9v-202c0-13.7,11.2-24.9,24.9-24.9h166.8c13.7,0,24.9,11.2,24.9,24.9V288.8z"/>
	</g>
</g>
<g>
	<g>
		<g>
			<g>
				<path style="fill:#FFFFFF;" d="M174.8,126.3h-49.7v-16h49.7V126.3z M127.2,124.3h45.7v-12h-45.7V124.3z"/>
			</g>
		</g>
		<g>
			<g>
				<path style="fill:#FFFFFF;" d="M174.8,148.7h-49.7v-16h49.7V148.7z M127.2,146.7h45.7v-12h-45.7V146.7z"/>
			</g>
		</g>
		<g>
			<g>
				<path style="fill:#FFFFFF;" d="M174.8,171h-49.7v-16h49.7V171z M127.2,169h45.7v-12h-45.7V169z"/>
			</g>
		</g>
		<g>
			<g>
				<path style="fill:#FFFFFF;" d="M174.8,193.4h-49.7v-16h49.7V193.4z M127.2,191.4h45.7v-12h-45.7V191.4z"/>
			</g>
		</g>
		<g>
			<g>
				<path style="fill:#FFFFFF;" d="M174.8,215.8h-49.7v-16h49.7V215.8z M127.2,213.8h45.7v-12h-45.7V213.8z"/>
			</g>
		</g>
		<g>
			<g>
				<path style="fill:#FFFFFF;" d="M174.8,238.2h-49.7v-16h49.7V238.2z M127.2,236.2h45.7v-12h-45.7V236.2z"/>
			</g>
		</g>
		<g>
			<g>
				<path style="fill:#FFFFFF;" d="M174.8,260.5h-49.7v-16h49.7V260.5z M127.2,258.5h45.7v-12h-45.7V258.5z"/>
			</g>
		</g>
		<g>
			<g>
				<rect x="126.8" y="111.3" style="fill:#FFFFFF;" width="20.8" height="14"/>
			</g>
		</g>
		<g>
			<g>
				<rect x="126.8" y="133.7" style="fill:#FFFFFF;" width="20.8" height="14"/>
			</g>
		</g>
		<g>
			<g>
				<rect x="126.8" y="156.1" style="fill:#FFFFFF;" width="20.8" height="14"/>
			</g>
		</g>
		<g>
			<g>
				<rect x="126.8" y="178.5" style="fill:#FFFFFF;" width="20.8" height="14"/>
			</g>
		</g>
		<g>
			<g>
				<rect x="126.8" y="200.8" style="fill:#FFFFFF;" width="20.8" height="14"/>
			</g>
		</g>
		<g>
			<g>
				<rect x="126.8" y="223.2" style="fill:#FFFFFF;" width="20.8" height="14"/>
			</g>
		</g>
		<g>
			<g>
				<rect x="126.8" y="245.6" style="fill:#FFFFFF;" width="20.8" height="14"/>
			</g>
		</g>
	</g>
	<g>
		<g>
			<g>
				<path style="fill:#FFFFFF;" d="M234.8,126.3h-49.7v-16h49.7V126.3z M187.2,124.3h45.7v-12h-45.7V124.3z"/>
			</g>
		</g>
		<g>
			<g>
				<path style="fill:#FFFFFF;" d="M234.8,148.7h-49.7v-16h49.7V148.7z M187.2,146.7h45.7v-12h-45.7V146.7z"/>
			</g>
		</g>
		<g>
			<g>
				<path style="fill:#FFFFFF;" d="M234.8,171h-49.7v-16h49.7V171z M187.2,169h45.7v-12h-45.7V169z"/>
			</g>
		</g>
		<g>
			<g>
				<path style="fill:#FFFFFF;" d="M234.8,193.4h-49.7v-16h49.7V193.4z M187.2,191.4h45.7v-12h-45.7V191.4z"/>
			</g>
		</g>
		<g>
			<g>
				<path style="fill:#FFFFFF;" d="M234.8,215.8h-49.7v-16h49.7V215.8z M187.2,213.8h45.7v-12h-45.7V213.8z"/>
			</g>
		</g>
		<g>
			<g>
				<path style="fill:#FFFFFF;" d="M234.8,238.2h-49.7v-16h49.7V238.2z M187.2,236.2h45.7v-12h-45.7V236.2z"/>
			</g>
		</g>
		<g>
			<g>
				<path style="fill:#FFFFFF;" d="M234.8,260.5h-49.7v-16h49.7V260.5z M187.2,258.5h45.7v-12h-45.7V258.5z"/>
			</g>
		</g>
		<g>
			<g>
				<rect x="212.4" y="111.3" style="fill:#FFFFFF;" width="20.8" height="14"/>
			</g>
		</g>
		<g>
			<g>
				<rect x="212.4" y="133.7" style="fill:#FFFFFF;" width="20.8" height="14"/>
			</g>
		</g>
		<g>
			<g>
				<rect x="212.4" y="156.1" style="fill:#FFFFFF;" width="20.8" height="14"/>
			</g>
		</g>
		<g>
			<g>
				<rect x="212.4" y="178.5" style="fill:#FFFFFF;" width="20.8" height="14"/>
			</g>
		</g>
		<g>
			<g>
				<rect x="212.4" y="200.8" style="fill:#FFFFFF;" width="20.8" height="14"/>
			</g>
		</g>
		<g>
			<g>
				<rect x="212.4" y="223.2" style="fill:#FFFFFF;" width="20.8" height="14"/>
			</g>
		</g>
		<g>
			<g>
				<rect x="212.4" y="245.6" style="fill:#FFFFFF;" width="20.8" height="14"/>
			</g>
		</g>
	</g>
</g>
</svg>
