<?xml version="1.0" encoding="utf-8"?>
<!-- Generator: Adobe Illustrator 21.1.0, SVG Export Plug-In . SVG Version: 6.00 Build 0)  -->
<svg version="1.1" id="Layer_1" xmlns="http://www.w3.org/2000/svg" xmlns:xlink="http://www.w3.org/1999/xlink" x="0px" y="0px"
	 viewBox="0 0 360 360" style="enable-background:new 0 0 360 360;" xml:space="preserve">
<g>
	<path style="fill:#612A60;" d="M268.3,70H101.5c-9.3,0-16.8,7.5-16.8,16.8v202c0,9.3,7.5,16.8,16.8,16.8h166.8
		c9.3,0,16.8-7.5,16.8-16.8v-202C285.2,77.6,277.6,70,268.3,70z M257.3,276.5c0,3.4-2.7,6.1-6.1,6.1H110.4c-3.4,0-6.1-2.7-6.1-6.1
		v-182c0-3.4,2.7-6.1,6.1-6.1h140.8c3.4,0,6.1,2.7,6.1,6.1V276.5z"/>
	<path style="fill:#612A60;" d="M44.4,6.5v347h271.2V6.5H44.4z M293.2,288.8c0,13.7-11.2,24.9-24.9,24.9H101.5
		c-13.7,0-24.9-11.2-24.9-24.9v-202c0-13.7,11.2-24.9,24.9-24.9h166.8c13.7,0,24.9,11.2,24.9,24.9V288.8z"/>
</g>
<g>
	<g>
		<g>
			<rect x="126.2" y="111.3" style="fill:none;stroke:#612A60;stroke-width:2;stroke-miterlimit:10;" width="47.7" height="14"/>
		</g>
		<g>
			<rect x="126.2" y="133.7" style="fill:none;stroke:#612A60;stroke-width:2;stroke-miterlimit:10;" width="47.7" height="14"/>
		</g>
		<g>
			<rect x="126.2" y="156.1" style="fill:none;stroke:#612A60;stroke-width:2;stroke-miterlimit:10;" width="47.7" height="14"/>
		</g>
		<g>
			<rect x="126.2" y="178.5" style="fill:none;stroke:#612A60;stroke-width:2;stroke-miterlimit:10;" width="47.7" height="14"/>
		</g>
		<g>
			<rect x="126.2" y="200.8" style="fill:none;stroke:#612A60;stroke-width:2;stroke-miterlimit:10;" width="47.7" height="14"/>
		</g>
		<g>
			<rect x="126.2" y="223.2" style="fill:none;stroke:#612A60;stroke-width:2;stroke-miterlimit:10;" width="47.7" height="14"/>
		</g>
		<g>
			<rect x="126.2" y="245.6" style="fill:none;stroke:#612A60;stroke-width:2;stroke-miterlimit:10;" width="47.7" height="14"/>
		</g>
		<g>
			<rect x="126.8" y="111.3" style="fill:#612A60;" width="20.8" height="14"/>
		</g>
		<g>
			<rect x="126.8" y="133.7" style="fill:#612A60;" width="20.8" height="14"/>
		</g>
		<g>
			<rect x="126.8" y="156.1" style="fill:#612A60;" width="20.8" height="14"/>
		</g>
		<g>
			<rect x="126.8" y="178.5" style="fill:#612A60;" width="20.8" height="14"/>
		</g>
		<g>
			<rect x="126.8" y="200.8" style="fill:#612A60;" width="20.8" height="14"/>
		</g>
		<g>
			<rect x="126.8" y="223.2" style="fill:#612A60;" width="20.8" height="14"/>
		</g>
		<g>
			<rect x="126.8" y="245.6" style="fill:#612A60;" width="20.8" height="14"/>
		</g>
	</g>
	<g>
		<g>
			
				<rect x="186.2" y="111.3" transform="matrix(-1 -4.490820e-11 4.490820e-11 -1 420 236.5998)" style="fill:none;stroke:#612A60;stroke-width:2;stroke-miterlimit:10;" width="47.7" height="14"/>
		</g>
		<g>
			
				<rect x="186.2" y="133.7" transform="matrix(-1 -4.490820e-11 4.490820e-11 -1 420 281.3531)" style="fill:none;stroke:#612A60;stroke-width:2;stroke-miterlimit:10;" width="47.7" height="14"/>
		</g>
		<g>
			
				<rect x="186.2" y="156.1" transform="matrix(-1 -4.490820e-11 4.490820e-11 -1 420 326.1063)" style="fill:none;stroke:#612A60;stroke-width:2;stroke-miterlimit:10;" width="47.7" height="14"/>
		</g>
		<g>
			
				<rect x="186.2" y="178.5" transform="matrix(-1 -4.488910e-11 4.488910e-11 -1 420 370.8596)" style="fill:none;stroke:#612A60;stroke-width:2;stroke-miterlimit:10;" width="47.7" height="14"/>
		</g>
		<g>
			
				<rect x="186.2" y="200.8" transform="matrix(-1 -4.488910e-11 4.488910e-11 -1 420 415.6128)" style="fill:none;stroke:#612A60;stroke-width:2;stroke-miterlimit:10;" width="47.7" height="14"/>
		</g>
		<g>
			
				<rect x="186.2" y="223.2" transform="matrix(-1 -4.488910e-11 4.488910e-11 -1 420 460.3661)" style="fill:none;stroke:#612A60;stroke-width:2;stroke-miterlimit:10;" width="47.7" height="14"/>
		</g>
		<g>
			
				<rect x="186.2" y="245.6" transform="matrix(-1 -4.488910e-11 4.488910e-11 -1 420 505.1193)" style="fill:none;stroke:#612A60;stroke-width:2;stroke-miterlimit:10;" width="47.7" height="14"/>
		</g>
		<g>
			<rect x="212.4" y="111.3" style="fill:#612A60;" width="20.8" height="14"/>
		</g>
		<g>
			<rect x="212.4" y="133.7" style="fill:#612A60;" width="20.8" height="14"/>
		</g>
		<g>
			<rect x="212.4" y="156.1" style="fill:#612A60;" width="20.8" height="14"/>
		</g>
		<g>
			<rect x="212.4" y="178.5" style="fill:#612A60;" width="20.8" height="14"/>
		</g>
		<g>
			<rect x="212.4" y="200.8" style="fill:#612A60;" width="20.8" height="14"/>
		</g>
		<g>
			<rect x="212.4" y="223.2" style="fill:#612A60;" width="20.8" height="14"/>
		</g>
		<g>
			<rect x="212.4" y="245.6" style="fill:#612A60;" width="20.8" height="14"/>
		</g>
	</g>
</g>
</svg>
